<svg xmlns="http://www.w3.org/2000/svg" xmlns:xlink="http://www.w3.org/1999/xlink" width="104" height="49" fill="none">
  <g fill="#000">
    <path
      d="M1.918 23h2.5v-2.037h.213c.46.835 1.398 2.293 3.784 2.293 3.17 0 5.472-2.54 5.472-6.776 0-4.244-2.335-6.74-5.497-6.74-2.43 0-3.307 1.483-3.76 2.293h-.153V5.545h-2.55V23zm2.497-6.546c0-2.736 1.193-4.55 3.418-4.55 2.3 0 3.47 1.952 3.47 4.55 0 2.625-1.193 4.628-3.47 4.628-2.2 0-3.418-1.875-3.418-4.628zm17.94 6.8c2.855 0 4.875-1.406 5.455-3.537l-2.412-.435c-.46 1.236-1.568 1.866-3.017 1.866-2.182 0-3.648-1.415-3.716-3.937h9.307v-.903c0-4.73-2.83-6.58-5.795-6.58-3.648 0-6.05 2.778-6.05 6.8 0 4.065 2.37 6.724 6.23 6.724zm-3.682-7.952c.102-1.858 1.45-3.47 3.52-3.47 1.977 0 3.273 1.466 3.28 3.47h-6.8z" />
    <use xlink:href="#B" />
    <path
      d="M45.713 9.9v13.9c0 1.22-.503 1.883-1.713 1.883-.145 0-.256 0-.4-.008v2.2h.494c2.736.034 4.176-1.432 4.176-4.057V9.9h-2.548zm1.26-2.02c.878 0 1.6-.682 1.6-1.517s-.733-1.526-1.6-1.526c-.886 0-1.6.7-1.6 1.526s.724 1.517 1.6 1.517zm8.55 15.4c2.165 0 3.383-1.1 3.87-2.08h.102V23h2.5v-8.693c0-3.8-3-4.568-5.08-4.568-2.37 0-4.55.955-5.403 3.34l2.395.546c.375-.93 1.33-1.824 3.043-1.824 1.645 0 2.5.86 2.5 2.344v.06c0 .93-.954.912-3.307 1.185-2.48.3-5.02.937-5.02 3.912 0 2.574 1.935 4 4.423 4zm.554-2.046c-1.44 0-2.48-.648-2.48-1.9 0-1.364 1.2-1.85 2.685-2.045.827-.1 2.787-.332 3.154-.7v1.688c0 1.55-1.236 2.966-3.358 2.966zM65.713 23h2.548v-8.07c0-1.764 1.236-2.992 2.685-2.992 1.415 0 2.395.938 2.395 2.36V23h2.54v-8.344c0-1.577.963-2.72 2.625-2.72 1.347 0 2.454.75 2.454 2.523V23h2.548v-8.778c0-2.992-1.67-4.483-4.04-4.483-1.884 0-3.298.903-3.93 2.3h-.136c-.57-1.432-1.773-2.3-3.52-2.3-1.73 0-3.017.86-3.562 2.3h-.162V9.9h-2.446V23zm21 0h2.548V9.9h-2.548V23zM88 7.9c.878 0 1.6-.682 1.6-1.517s-.732-1.526-1.6-1.526c-.886 0-1.6.7-1.6 1.526S87.114 7.9 88 7.9z" />
    <use xlink:href="#B" x="61" />
    <path
      d="M7.824 29.9H5.14v-3.136H2.6V29.9H.673v2.045H2.6v7.73c-.01 2.378 1.807 3.528 3.818 3.486.8-.01 1.355-.162 1.653-.273l-.46-2.105c-.17.034-.486.1-.895.1-.827 0-1.568-.273-1.568-1.747v-7.202h2.685V29.9zm3.89 13.1h2.548v-7.994c0-1.713 1.32-2.95 3.128-2.95a6.08 6.08 0 0 1 1.33.153v-2.437a10.35 10.35 0 0 0-1.082-.06c-1.534 0-2.847.87-3.324 2.276h-.136v-2.08h-2.463V43zm13.8.3c2.165 0 3.383-1.1 3.87-2.08h.102V43h2.5v-8.693c0-3.8-3-4.568-5.08-4.568-2.37 0-4.55.955-5.403 3.34l2.395.545c.375-.93 1.33-1.824 3.043-1.824 1.645 0 2.5.86 2.5 2.344v.06c0 .93-.955.912-3.307 1.185-2.48.3-5.02.938-5.02 3.912 0 2.574 1.935 4 4.423 4zm.554-2.045c-1.44 0-2.48-.648-2.48-1.9 0-1.364 1.2-1.85 2.685-2.045.827-.1 2.787-.332 3.154-.7v1.688c0 1.55-1.236 2.966-3.358 2.966zm12.183-6.028c0-2.088 1.278-3.28 3.05-3.28 1.73 0 2.778 1.134 2.778 3.034V43h2.548v-8.327c0-3.24-1.78-4.935-4.457-4.935-1.97 0-3.256.912-3.86 2.3h-.162v-2.13H35.71V43h2.548v-7.773z" />
  </g>
  <defs>
    <path id="B"
      d="M34.26 15.227c0-2.088 1.278-3.28 3.05-3.28 1.73 0 2.778 1.133 2.778 3.034V23h2.548v-8.327c0-3.24-1.78-4.935-4.457-4.935-1.97 0-3.256.912-3.86 2.3h-.162V9.91h-2.446V23h2.548v-7.773z" />
  </defs>
</svg>
