<svg xmlns="http://www.w3.org/2000/svg" xmlns:xlink="http://www.w3.org/1999/xlink" width="504.777" height="434.253" viewBox="0 0 504.777 434.253">
  <defs>
    <linearGradient id="linear-gradient" x1="-13.852" y1="3.512" x2="-13.852" y2="2.512" gradientUnits="objectBoundingBox">
      <stop offset="0" stop-color="gray" stop-opacity="0.251"/>
      <stop offset="0.54" stop-color="gray" stop-opacity="0.122"/>
      <stop offset="1" stop-color="gray" stop-opacity="0.102"/>
    </linearGradient>
    <linearGradient id="linear-gradient-2" x1="-14.487" y1="3.972" x2="-14.487" y2="2.972" xlink:href="#linear-gradient"/>
    <linearGradient id="linear-gradient-3" x1="-15.813" y1="3.547" x2="-15.813" y2="2.547" xlink:href="#linear-gradient"/>
    <linearGradient id="linear-gradient-4" x1="-16.199" y1="3.374" x2="-16.199" y2="2.375" xlink:href="#linear-gradient"/>
    <linearGradient id="linear-gradient-5" x1="0.5" y1="1" x2="0.5" y2="0" xlink:href="#linear-gradient"/>
  </defs>
  <g id="undraw_digital_nomad_9kgl" transform="translate(1.154)">
    <ellipse id="Ellipse_1" data-name="Ellipse 1" cx="62.555" cy="14.276" rx="62.555" ry="14.276" transform="translate(175.752 400.882)" fill="#4285f4" opacity="0.1"/>
    <path id="Path_1" data-name="Path 1" d="M261.848,77.674c15.37-13.681,39.5-16.491,61.46-15.4,68.98,3.436,131.235,36.729,185.107,74.394,19.469,13.639,38.7,28.336,51.352,47.111,25.784,38.229,18.122,91.186-17.707,122.679-12.187,10.713-26.963,18.943-42.133,26.21-26.973,12.945-56.077,23.342-86.692,26.31-21.827,2.1-43.927.395-65.633-2.552-60.634-8.219-120.153-26.4-170.042-57.519-21.9-13.655-42.5-30.609-51.52-52.71s-3.247-50.031,19.1-63.1c9.24-5.4,20.285-7.846,31.1-10.135,15.923-3.373,32.1-6.7,46.464-13.56,14.839-7.083,32.414-20.78,29.467-36.455C249.024,106.131,246.5,91.355,261.848,77.674Z" transform="translate(-121.972 -49.07)" fill="#4285f4" opacity="0.1"/>
    <path id="Path_2" data-name="Path 2" d="M300.862,201.711l-10.361,4.01-15.149,5.857c-.574-1.052-1.415-2.515-2.457-4.21-3.589-5.946-9.529-15.2-14.813-23.327C252.13,174.859,247,167.14,247,167.14l3.715-1.052,30.3-8.788Z" transform="translate(-181.214 -94.193)" fill="#e6ecf8"/>
    <path id="Path_3" data-name="Path 3" d="M304.207,201.678l-10.361,4.01a78.156,78.156,0,0,1-17.607,1.621c-3.589-5.946-9.53-15.2-14.813-23.327l-7.367-17.965,30.3-8.788Z" transform="translate(-184.559 -94.159)" opacity="0.1"/>
    <path id="Path_4" data-name="Path 4" d="M310.6,195.235s-16.1,9.524-40.144,7.367L251.29,155.88l9.188-1.579,31.751-5.451,18.007,45.474Z" transform="translate(-183.246 -90.189)" fill="#4285f4"/>
    <path id="Path_5" data-name="Path 5" d="M318.551,194.294a75.772,75.772,0,0,1-12.587-.358,40.184,40.184,0,0,1-13.681-3.841,41.416,41.416,0,0,1-8.945-6.014c-6.677-6-10.808-14.6-14.518-29.809l31.751-5.451Z" transform="translate(-191.552 -90.175)" opacity="0.1"/>
    <path id="Path_6" data-name="Path 6" d="M328.427,179.432a87.867,87.867,0,0,1-23.947.895,40.3,40.3,0,0,1-13.681-3.841,41.74,41.74,0,0,1-8.945-6.014c-8.261-7.435-12.629-18.828-17.123-41.838,0,0,19.727,4.736,39.228-5.672C303.932,122.981,310.51,164.025,328.427,179.432Z" transform="translate(-189.614 -77.922)" fill="#f9fafb"/>
    <path id="Path_7" data-name="Path 7" d="M319.9,219.146a40.3,40.3,0,0,1-13.681-3.841,41.738,41.738,0,0,1-8.945-6.014c7.035-.574,8.046-4.42,8.046-4.42C310.509,213.137,319.9,219.146,319.9,219.146Z" transform="translate(-205.032 -116.731)" opacity="0.1"/>
    <path id="Path_8" data-name="Path 8" d="M284.07,145.862s16.044-.905,20.522-4.362l.684,2.178s-10.6,4.678-21.206,4.736Z" transform="translate(-198.777 -86.707)" fill="#4285f4" opacity="0.3"/>
    <path id="Path_9" data-name="Path 9" d="M284.07,164.39s15.533-.847,27.268-6.52l.4.91s-9.319,5.436-27.668,6.841Z" transform="translate(-198.777 -94.463)" fill="#4285f4" opacity="0.3"/>
    <path id="Path_10" data-name="Path 10" d="M286.44,172.39s15.539-.852,27.273-6.52l.395.905s-9.314,5.436-27.668,6.841Z" transform="translate(-199.9 -98.253)" fill="#4285f4" opacity="0.3"/>
    <path id="Path_11" data-name="Path 11" d="M288.82,180.38s15.533-.847,27.268-6.52l.4.91s-9.319,5.436-27.668,6.841Z" transform="translate(-201.028 -102.039)" fill="#4285f4" opacity="0.3"/>
    <path id="Path_12" data-name="Path 12" d="M291.19,188.38s15.539-.852,27.273-6.52l.395.905s-9.314,5.436-27.668,6.841Z" transform="translate(-202.151 -105.829)" fill="#4285f4" opacity="0.3"/>
    <path id="Path_13" data-name="Path 13" d="M293.57,196.37s15.533-.847,27.268-6.52l.4.91s-9.319,5.436-27.668,6.841Z" transform="translate(-203.279 -109.615)" fill="#4285f4" opacity="0.3"/>
    <path id="Path_14" data-name="Path 14" d="M957.289,284.8l.311.226.047-.489-.205-.437-.332.053Z" transform="translate(-454.024 -134.606)" fill="#464a5f"/>
    <path id="Path_15" data-name="Path 15" d="M957.289,284.8l.311.226.047-.489-.205-.437-.332.053Z" transform="translate(-454.024 -134.606)" opacity="0.1"/>
    <path id="Path_16" data-name="Path 16" d="M957.185,285.43l.305.232-.21.353-.3-.063-.089-.121Z" transform="translate(-453.919 -135.236)" fill="#9c9ca1"/>
    <path id="Path_17" data-name="Path 17" d="M957.185,285.43l.305.232-.21.353-.3-.063-.089-.121Z" transform="translate(-453.919 -135.236)" opacity="0.1"/>
    <path id="Path_18" data-name="Path 18" d="M946.053,245.09l-24.679,34.329a2.884,2.884,0,0,0,.647,4.01l52.683,38.186a2.878,2.878,0,0,0,4.01-.631l25.116-34.419Z" transform="translate(-500.475 -135.787)" fill="#9c9ca1"/>
    <path id="Path_19" data-name="Path 19" d="M946.053,245.09l-24.679,34.329a2.884,2.884,0,0,0,.647,4.01l52.683,38.186a2.878,2.878,0,0,0,4.01-.631l25.116-34.419Z" transform="translate(-500.475 -135.787)" opacity="0.1"/>
    <path id="Path_20" data-name="Path 20" d="M945.874,244l-24.679,34.329a2.878,2.878,0,0,0,.647,4l52.668,38.181a2.878,2.878,0,0,0,4.01-.637l25.116-34.414Z" transform="translate(-500.391 -135.271)" fill="#9c9ca1"/>
    <path id="Path_21" data-name="Path 21" d="M968,203.023l.653,20.985,57.777,41.475-.547-21.353a3.057,3.057,0,0,0-1.294-2.426l-55.614-39.2a.61.61,0,0,0-.974.521Z" transform="translate(-522.821 -115.552)" fill="#464a5f"/>
    <path id="Path_22" data-name="Path 22" d="M968,203.023l.653,20.985,57.777,41.475-.547-21.353a3.057,3.057,0,0,0-1.294-2.426l-55.614-39.2a.61.61,0,0,0-.974.521Z" transform="translate(-522.821 -115.552)" opacity="0.1"/>
    <path id="Path_23" data-name="Path 23" d="M967.34,203.533l.652,21,57.777,41.475-.563-21.353a3.063,3.063,0,0,0-1.3-2.426l-55.609-39.2a.605.605,0,0,0-.958.505Z" transform="translate(-522.509 -115.805)" fill="#464a5f"/>
    <g id="Group_1" data-name="Group 1" transform="translate(436.909 117.91)" opacity="0.1">
      <path id="Path_24" data-name="Path 24" d="M970.33,261.675l-1.494,2.1a.579.579,0,0,0,.132.8l2.1,1.579a.574.574,0,0,0,.8-.116l1.51-1.979a.574.574,0,0,0-.1-.805l-2.147-1.694a.574.574,0,0,0-.805.11Z" transform="translate(-960.077 -261.447)"/>
      <path id="Path_25" data-name="Path 25" d="M977.729,266.988l-1.494,2.1a.579.579,0,0,0,.132.8l2.1,1.579a.573.573,0,0,0,.8-.116l1.51-1.979a.573.573,0,0,0-.1-.805l-2.126-1.689a.574.574,0,0,0-.826.105Z" transform="translate(-963.583 -263.961)"/>
      <path id="Path_26" data-name="Path 26" d="M985.5,272.578l-1.494,2.1a.579.579,0,0,0,.132.8l2.1,1.579a.574.574,0,0,0,.8-.116l1.51-1.979a.579.579,0,0,0-.1-.805l-2.147-1.689a.574.574,0,0,0-.805.105Z" transform="translate(-967.265 -266.615)"/>
      <path id="Path_27" data-name="Path 27" d="M993.358,278.23l-1.494,2.1a.579.579,0,0,0,.126.8l2.1,1.579a.574.574,0,0,0,.8-.116l1.51-1.979a.579.579,0,0,0-.1-.805l-2.147-1.689a.573.573,0,0,0-.8.105Z" transform="translate(-970.987 -269.294)"/>
      <path id="Path_28" data-name="Path 28" d="M1001.218,283.878l-1.494,2.1a.579.579,0,0,0,.126.8l2.1,1.579a.579.579,0,0,0,.805-.116l1.51-1.979a.579.579,0,0,0-.1-.805l-2.147-1.689a.574.574,0,0,0-.805.105Z" transform="translate(-974.711 -271.968)"/>
      <path id="Path_29" data-name="Path 29" d="M1009.158,289.114l-1.852,2.631a.274.274,0,0,0,.058.374l2.631,1.926a.268.268,0,0,0,.374-.053l1.879-2.463a.268.268,0,0,0-.047-.374l-2.631-2.1a.274.274,0,0,0-.41.063Z" transform="translate(-978.331 -274.494)"/>
      <path id="Path_30" data-name="Path 30" d="M1017.018,294.764l-1.852,2.631a.274.274,0,0,0,.058.374l2.631,1.926a.268.268,0,0,0,.374-.053l1.879-2.463a.268.268,0,0,0-.047-.374l-2.631-2.1a.274.274,0,0,0-.411.063Z" transform="translate(-982.055 -277.171)"/>
      <path id="Path_31" data-name="Path 31" d="M1023.973,299.758l-1.858,2.631a.269.269,0,0,0,.063.374l2.631,1.926a.274.274,0,0,0,.379-.053l1.879-2.457a.274.274,0,0,0-.047-.379l-2.631-2.1a.268.268,0,0,0-.416.063Z" transform="translate(-985.348 -279.535)"/>
      <path id="Path_32" data-name="Path 32" d="M1031.764,305.373,1029.912,308a.263.263,0,0,0,.058.374l2.631,1.926a.274.274,0,0,0,.379-.053l1.879-2.457a.274.274,0,0,0-.047-.379l-2.631-2.078a.268.268,0,0,0-.416.037Z" transform="translate(-989.04 -282.203)"/>
      <path id="Path_33" data-name="Path 33" d="M1039.288,310.806l-1.852,2.631a.268.268,0,0,0,.063.374l2.631,1.931a.268.268,0,0,0,.374-.058l1.879-2.457a.274.274,0,0,0-.047-.379l-2.631-2.079a.274.274,0,0,0-.416.037Z" transform="translate(-992.607 -284.778)"/>
      <path id="Path_34" data-name="Path 34" d="M1046.858,316.226l-1.852,2.631a.274.274,0,0,0,.058.374l2.631,1.926a.268.268,0,0,0,.373-.053l1.879-2.463a.268.268,0,0,0-.047-.374l-2.631-2.078a.268.268,0,0,0-.41.037Z" transform="translate(-996.193 -287.347)"/>
      <path id="Path_35" data-name="Path 35" d="M1054.4,321.638l-1.858,2.631a.268.268,0,0,0,.063.374l2.631,1.931a.274.274,0,0,0,.379-.058l1.879-2.457a.274.274,0,0,0-.047-.379l-2.631-2.1a.268.268,0,0,0-.416.063Z" transform="translate(-999.766 -289.902)"/>
      <path id="Path_36" data-name="Path 36" d="M965.163,268.856l-1.489,2.1a.579.579,0,0,0,.126.8l2.1,1.579a.584.584,0,0,0,.805-.116l1.51-1.979a.579.579,0,0,0-.1-.805l-2.147-1.694a.584.584,0,0,0-.81.111Z" transform="translate(-957.631 -264.85)"/>
      <path id="Path_37" data-name="Path 37" d="M953.883,284.558l-1.489,2.1a.579.579,0,0,0,.126.8l2.1,1.579a.584.584,0,0,0,.805-.11l1.51-1.979a.579.579,0,0,0-.1-.805l-2.147-1.694A.579.579,0,0,0,953.883,284.558Z" transform="translate(-952.286 -272.29)"/>
      <path id="Path_38" data-name="Path 38" d="M972.558,274.177l-1.494,2.1a.579.579,0,0,0,.126.8l2.1,1.579a.584.584,0,0,0,.805-.116l1.51-1.979a.579.579,0,0,0-.1-.805l-2.147-1.694A.579.579,0,0,0,972.558,274.177Z" transform="translate(-961.132 -267.372)"/>
      <path id="Path_39" data-name="Path 39" d="M980.333,279.8l-1.489,2.1a.579.579,0,0,0,.126.8l2.1,1.579a.584.584,0,0,0,.805-.111l1.51-1.979a.579.579,0,0,0-.1-.805l-2.147-1.694A.579.579,0,0,0,980.333,279.8Z" transform="translate(-964.818 -270.035)"/>
      <path id="Path_40" data-name="Path 40" d="M988.193,285.418l-1.489,2.1a.579.579,0,0,0,.126.8l2.1,1.579a.584.584,0,0,0,.805-.111l1.51-1.984a.574.574,0,0,0-.1-.8L989,285.312A.579.579,0,0,0,988.193,285.418Z" transform="translate(-968.542 -272.698)"/>
      <path id="Path_41" data-name="Path 41" d="M961.463,289.628l-1.489,2.1a.579.579,0,0,0,.126.8l2.1,1.579a.584.584,0,0,0,.805-.111l1.51-1.984a.574.574,0,0,0-.1-.8l-2.147-1.694A.579.579,0,0,0,961.463,289.628Z" transform="translate(-955.878 -274.692)"/>
      <path id="Path_42" data-name="Path 42" d="M969.233,295.206l-1.489,2.1a.579.579,0,0,0,.126.8l2.1,1.579a.584.584,0,0,0,.805-.116l1.51-1.979a.579.579,0,0,0-.1-.805l-2.147-1.694A.584.584,0,0,0,969.233,295.206Z" transform="translate(-959.559 -277.335)"/>
      <path id="Path_43" data-name="Path 43" d="M977.093,300.854l-1.489,2.1a.579.579,0,0,0,.126.8l2.1,1.579a.584.584,0,0,0,.805-.116l1.51-1.979a.579.579,0,0,0-.105-.805l-2.142-1.694A.579.579,0,0,0,977.093,300.854Z" transform="translate(-963.283 -280.01)"/>
      <path id="Path_44" data-name="Path 44" d="M996.053,291.037l-1.489,2.1a.579.579,0,0,0,.126.8l2.1,1.579a.584.584,0,0,0,.805-.111l1.51-1.984a.574.574,0,0,0-.1-.8l-2.126-1.731a.579.579,0,0,0-.831.142Z" transform="translate(-972.266 -275.344)"/>
      <path id="Path_45" data-name="Path 45" d="M1003.913,296.707l-1.489,2.1a.579.579,0,0,0,.126.8l2.1,1.579a.584.584,0,0,0,.805-.111l1.51-1.984a.574.574,0,0,0-.1-.8l-2.147-1.694a.579.579,0,0,0-.81.105Z" transform="translate(-975.991 -278.047)"/>
      <path id="Path_46" data-name="Path 46" d="M1011.853,301.938,1010,304.569a.268.268,0,0,0,.063.374l2.631,1.926a.274.274,0,0,0,.379-.053l1.879-2.457a.274.274,0,0,0-.047-.379l-2.631-2.1a.268.268,0,0,0-.416.063Z" transform="translate(-979.605 -280.568)"/>
      <path id="Path_47" data-name="Path 47" d="M1018.808,306.941l-1.852,2.631a.268.268,0,0,0,.063.374l2.631,1.926a.263.263,0,0,0,.374-.053l1.879-2.457a.274.274,0,0,0-.047-.379l-2.631-2.1a.274.274,0,0,0-.416.063Z" transform="translate(-982.903 -282.94)"/>
      <path id="Path_48" data-name="Path 48" d="M1026.6,312.556l-1.857,2.631a.268.268,0,0,0,.063.374l2.631,1.926a.263.263,0,0,0,.374-.053l1.879-2.457a.274.274,0,0,0-.047-.379l-2.631-2.079a.268.268,0,0,0-.41.037Z" transform="translate(-986.594 -285.608)"/>
      <path id="Path_49" data-name="Path 49" d="M1034.148,317.974,1032.3,320.6a.274.274,0,0,0,.058.374l2.631,1.926a.268.268,0,0,0,.374-.053l1.879-2.463a.268.268,0,0,0-.047-.374l-2.631-2.1a.274.274,0,0,0-.41.063Z" transform="translate(-990.171 -288.168)"/>
      <path id="Path_50" data-name="Path 50" d="M974.968,287.208l-1.494,2.1a.579.579,0,0,0,.126.8l2.1,1.579a.579.579,0,0,0,.805-.116l1.51-1.979a.579.579,0,0,0-.1-.805l-2.115-1.7a.574.574,0,0,0-.837.116Z" transform="translate(-962.274 -273.535)"/>
      <path id="Path_51" data-name="Path 51" d="M982.828,292.878l-1.494,2.1a.579.579,0,0,0,.126.8l2.1,1.579a.579.579,0,0,0,.805-.116l1.51-1.979a.579.579,0,0,0-.1-.805l-2.147-1.689a.574.574,0,0,0-.805.105Z" transform="translate(-965.998 -276.233)"/>
      <path id="Path_52" data-name="Path 52" d="M990.683,298.527l-1.489,2.1a.579.579,0,0,0,.126.8l2.1,1.579a.579.579,0,0,0,.805-.116l1.51-1.979a.584.584,0,0,0-.1-.805l-2.147-1.689A.579.579,0,0,0,990.683,298.527Z" transform="translate(-969.722 -278.909)"/>
      <path id="Path_53" data-name="Path 53" d="M998.563,304.178l-1.489,2.1a.579.579,0,0,0,.126.8l2.1,1.579a.579.579,0,0,0,.805-.116l1.51-1.979a.579.579,0,0,0-.1-.805l-2.147-1.689A.579.579,0,0,0,998.563,304.178Z" transform="translate(-973.456 -281.586)"/>
      <path id="Path_54" data-name="Path 54" d="M1006.484,309.423l-1.852,2.631a.263.263,0,0,0,.058.374l2.631,1.926a.274.274,0,0,0,.379-.053l1.879-2.463a.268.268,0,0,0-.047-.374l-2.631-2.078a.268.268,0,0,0-.416.037Z" transform="translate(-977.062 -284.122)"/>
      <path id="Path_55" data-name="Path 55" d="M1013.443,314.423l-1.858,2.631a.268.268,0,0,0,.063.374l2.631,1.926a.274.274,0,0,0,.379-.053l1.873-2.457a.263.263,0,0,0-.047-.379l-2.631-2.079a.263.263,0,0,0-.41.037Z" transform="translate(-980.359 -286.491)"/>
      <path id="Path_56" data-name="Path 56" d="M1021.283,320.006l-1.858,2.631a.268.268,0,0,0,.063.374l2.631,1.926a.274.274,0,0,0,.379-.053l1.878-2.457a.274.274,0,0,0-.047-.379l-2.631-2.1a.263.263,0,0,0-.416.063Z" transform="translate(-984.073 -289.126)"/>
      <path id="Path_57" data-name="Path 57" d="M1028.777,325.447l-1.852,2.631a.279.279,0,0,0,.058.379l2.631,1.926a.274.274,0,0,0,.374-.053l1.878-2.463a.268.268,0,0,0-.047-.374l-2.631-2.1a.274.274,0,0,0-.41.058Z" transform="translate(-987.627 -291.711)"/>
      <path id="Path_58" data-name="Path 58" d="M1041.693,323.406l-1.857,2.631a.268.268,0,0,0,.063.374l2.631,1.926a.268.268,0,0,0,.379-.053l1.879-2.457a.274.274,0,0,0-.047-.379l-2.631-2.078a.274.274,0,0,0-.416.037Z" transform="translate(-993.744 -290.748)"/>
      <path id="Path_59" data-name="Path 59" d="M1049.287,328.827l-1.852,2.631a.279.279,0,0,0,.058.379l2.631,1.926a.274.274,0,0,0,.374-.053l1.878-2.463a.268.268,0,0,0-.047-.374l-2.631-2.1a.274.274,0,0,0-.41.058Z" transform="translate(-997.344 -293.312)"/>
      <path id="Path_60" data-name="Path 60" d="M1015.477,328.1l-1.747,2.457a.358.358,0,0,0,.084.5l2.463,1.821a.358.358,0,0,0,.526-.068l1.768-2.315a.358.358,0,0,0-.063-.526L1016.019,328a.363.363,0,0,0-.542.1Z" transform="translate(-981.367 -292.94)"/>
      <path id="Path_61" data-name="Path 61" d="M1023.025,333.521l-1.747,2.463a.358.358,0,0,0,.079.5l2.468,1.821a.368.368,0,0,0,.526-.074l1.768-2.315a.363.363,0,0,0-.063-.526l-2.494-1.963a.358.358,0,0,0-.537.095Z" transform="translate(-984.942 -295.512)"/>
      <path id="Path_62" data-name="Path 62" d="M1030.557,338.967l-1.747,2.463a.363.363,0,0,0,.084.526l2.468,1.821a.358.358,0,0,0,.526-.068l1.768-2.321a.353.353,0,0,0-.063-.5l-2.489-1.968a.368.368,0,0,0-.547.047Z" transform="translate(-988.506 -298.106)"/>
      <path id="Path_63" data-name="Path 63" d="M1038.137,344.264l-1.852,2.631a.273.273,0,0,0,.063.379l2.631,1.926a.268.268,0,0,0,.374-.053l1.878-2.463a.268.268,0,0,0-.047-.374l-2.631-2.1a.274.274,0,0,0-.416.058Z" transform="translate(-992.061 -300.625)"/>
      <path id="Path_64" data-name="Path 64" d="M959.483,276.26l-1.579,2.257a.579.579,0,0,0,.137.805l6.178,4.4a.574.574,0,0,0,.789-.121l1.684-2.194a.574.574,0,0,0-.126-.821l-6.278-4.462a.573.573,0,0,0-.805.137Z" transform="translate(-954.898 -268.349)"/>
      <path id="Path_65" data-name="Path 65" d="M1036.1,330.947l-1.942,2.763a.268.268,0,0,0,.063.374l6.677,4.736a.274.274,0,0,0,.374-.058l2.052-2.684a.269.269,0,0,0-.058-.384l-6.788-4.825a.268.268,0,0,0-.379.079Z" transform="translate(-991.052 -294.316)"/>
      <path id="Path_66" data-name="Path 66" d="M984.813,306.155l-1.857,2.568a.279.279,0,0,0,.058.379l14.47,10.671a.274.274,0,0,0,.374-.053l2.042-2.678a.268.268,0,0,0-.058-.384L985.2,306.1a.268.268,0,0,0-.389.058Z" transform="translate(-966.794 -282.574)"/>
    </g>
    <path id="Path_67" data-name="Path 67" d="M970.208,260.938l-1.494,2.1a.579.579,0,0,0,.126.8l2.1,1.579a.579.579,0,0,0,.805-.111l1.51-1.979a.574.574,0,0,0-.1-.805l-2.147-1.694a.574.574,0,0,0-.805.105Z" transform="translate(-523.109 -143.19)" fill="#464a5f"/>
    <path id="Path_68" data-name="Path 68" d="M977.608,266.26l-1.494,2.1a.579.579,0,0,0,.126.8l2.1,1.579a.574.574,0,0,0,.8-.111l1.51-1.979a.574.574,0,0,0-.1-.805l-2.147-1.694A.574.574,0,0,0,977.608,266.26Z" transform="translate(-526.615 -145.713)" fill="#464a5f"/>
    <path id="Path_69" data-name="Path 69" d="M985.387,271.792l-1.484,2.1a.579.579,0,0,0,.126.8l2.1,1.579a.584.584,0,0,0,.805-.116l1.51-1.979a.574.574,0,0,0-.1-.805l-2.147-1.694a.579.579,0,0,0-.816.111Z" transform="translate(-530.306 -148.329)" fill="#464a5f"/>
    <path id="Path_70" data-name="Path 70" d="M993.238,277.485l-1.494,2.1a.579.579,0,0,0,.126.8l2.1,1.579a.584.584,0,0,0,.805-.116l1.51-1.979a.574.574,0,0,0-.1-.805l-2.147-1.694a.574.574,0,0,0-.805.111Z" transform="translate(-534.021 -151.028)" fill="#464a5f"/>
    <path id="Path_71" data-name="Path 71" d="M1001.093,283.136l-1.489,2.1a.579.579,0,0,0,.126.8l2.1,1.579a.584.584,0,0,0,.805-.116l1.51-1.979a.579.579,0,0,0-.1-.805l-2.147-1.694a.584.584,0,0,0-.81.111Z" transform="translate(-537.745 -153.706)" fill="#464a5f"/>
    <path id="Path_72" data-name="Path 72" d="M1009.036,288.371,1007.184,291a.268.268,0,0,0,.058.374l2.631,1.926a.274.274,0,0,0,.379-.053l1.879-2.463a.268.268,0,0,0-.047-.374l-2.631-2.1a.274.274,0,0,0-.416.063Z" transform="translate(-541.363 -156.231)" fill="#464a5f"/>
    <path id="Path_73" data-name="Path 73" d="M1016.894,294.024l-1.852,2.631a.268.268,0,0,0,.058.379l2.631,1.926a.279.279,0,0,0,.379-.053l1.879-2.463a.268.268,0,0,0-.047-.374l-2.631-2.1a.274.274,0,0,0-.416.058Z" transform="translate(-545.085 -158.911)" fill="#464a5f"/>
    <path id="Path_74" data-name="Path 74" d="M1023.853,299.018,1022,301.649a.268.268,0,0,0,.063.374l2.631,1.926a.274.274,0,0,0,.379-.053l1.879-2.463a.268.268,0,0,0-.047-.374l-2.631-2.1a.268.268,0,0,0-.416.063Z" transform="translate(-548.382 -161.275)" fill="#464a5f"/>
    <path id="Path_75" data-name="Path 75" d="M1031.643,304.621l-1.858,2.631a.268.268,0,0,0,.063.374l2.631,1.926a.274.274,0,0,0,.379-.053l1.879-2.463a.268.268,0,0,0-.047-.374l-2.631-2.1a.274.274,0,0,0-.416.063Z" transform="translate(-552.072 -163.93)" fill="#464a5f"/>
    <path id="Path_76" data-name="Path 76" d="M1039.188,310.059l-1.852,2.631a.274.274,0,0,0,.058.374l2.631,1.926a.263.263,0,0,0,.374-.053l1.879-2.457a.274.274,0,0,0-.047-.379l-2.631-2.078a.274.274,0,0,0-.41.037Z" transform="translate(-555.65 -166.516)" fill="#464a5f"/>
    <path id="Path_77" data-name="Path 77" d="M1046.734,315.471l-1.852,2.631a.263.263,0,0,0,.058.374l2.631,1.926a.273.273,0,0,0,.379-.053l1.879-2.463a.268.268,0,0,0-.047-.374l-2.631-2.1a.274.274,0,0,0-.416.063Z" transform="translate(-559.223 -169.071)" fill="#464a5f"/>
    <path id="Path_78" data-name="Path 78" d="M1054.283,320.9l-1.858,2.631a.268.268,0,0,0,.063.374l2.631,1.926a.268.268,0,0,0,.374-.053l1.879-2.457a.268.268,0,0,0-.047-.379l-2.631-2.078a.268.268,0,0,0-.41.037Z" transform="translate(-562.799 -171.649)" fill="#464a5f"/>
    <path id="Path_79" data-name="Path 79" d="M965.043,268.116l-1.489,2.1a.579.579,0,0,0,.126.8l2.1,1.579a.584.584,0,0,0,.805-.116l1.51-1.978a.579.579,0,0,0-.1-.805l-2.147-1.694A.584.584,0,0,0,965.043,268.116Z" transform="translate(-520.665 -146.59)" fill="#464a5f"/>
    <path id="Path_80" data-name="Path 80" d="M953.761,283.8l-1.494,2.1a.584.584,0,0,0,.132.8l2.1,1.579a.574.574,0,0,0,.8-.111l1.516-1.984a.574.574,0,0,0-.105-.8l-2.142-1.694A.579.579,0,0,0,953.761,283.8Z" transform="translate(-515.319 -154.02)" fill="#464a5f"/>
    <path id="Path_81" data-name="Path 81" d="M972.443,273.436l-1.489,2.1a.579.579,0,0,0,.126.8l2.1,1.579a.584.584,0,0,0,.805-.116l1.51-1.978a.579.579,0,0,0-.1-.805l-2.147-1.694A.584.584,0,0,0,972.443,273.436Z" transform="translate(-524.171 -149.111)" fill="#464a5f"/>
    <path id="Path_82" data-name="Path 82" d="M980.213,279l-1.489,2.1a.579.579,0,0,0,.126.8l2.1,1.579a.579.579,0,0,0,.805-.116l1.51-1.979a.584.584,0,0,0-.1-.805l-2.126-1.7a.579.579,0,0,0-.831.116Z" transform="translate(-527.852 -151.74)" fill="#464a5f"/>
    <path id="Path_83" data-name="Path 83" d="M988.073,284.668l-1.489,2.1a.579.579,0,0,0,.126.8l2.1,1.579a.579.579,0,0,0,.805-.116l1.51-1.979a.584.584,0,0,0-.1-.805l-2.147-1.689A.579.579,0,0,0,988.073,284.668Z" transform="translate(-531.576 -154.433)" fill="#464a5f"/>
    <path id="Path_84" data-name="Path 84" d="M961.343,288.878l-1.489,2.1a.579.579,0,0,0,.126.8l2.1,1.579a.579.579,0,0,0,.805-.116l1.51-1.979a.579.579,0,0,0-.105-.805l-2.142-1.689A.579.579,0,0,0,961.343,288.878Z" transform="translate(-518.912 -156.427)" fill="#464a5f"/>
    <path id="Path_85" data-name="Path 85" d="M969.113,294.461l-1.489,2.1a.574.574,0,0,0,.126.795l2.1,1.579a.579.579,0,0,0,.8-.116l1.516-1.979a.579.579,0,0,0-.105-.805l-2.142-1.694a.579.579,0,0,0-.81.116Z" transform="translate(-522.593 -159.07)" fill="#464a5f"/>
    <path id="Path_86" data-name="Path 86" d="M976.972,300.1l-1.494,2.1a.579.579,0,0,0,.132.795l2.1,1.579a.579.579,0,0,0,.8-.116l1.516-1.979a.579.579,0,0,0-.105-.805l-2.115-1.7a.579.579,0,0,0-.837.121Z" transform="translate(-526.316 -161.732)" fill="#464a5f"/>
    <path id="Path_87" data-name="Path 87" d="M995.933,290.29l-1.489,2.1a.579.579,0,0,0,.126.8l2.1,1.579a.579.579,0,0,0,.805-.116l1.51-1.979a.579.579,0,0,0-.105-.805l-2.094-1.7a.579.579,0,0,0-.858.116Z" transform="translate(-535.3 -157.082)" fill="#464a5f"/>
    <path id="Path_88" data-name="Path 88" d="M1003.793,295.968l-1.489,2.1a.579.579,0,0,0,.126.8l2.1,1.579a.574.574,0,0,0,.8-.116l1.515-1.978a.579.579,0,0,0-.105-.805l-2.142-1.689A.579.579,0,0,0,1003.793,295.968Z" transform="translate(-539.024 -159.786)" fill="#464a5f"/>
    <path id="Path_89" data-name="Path 89" d="M1011.733,301.213l-1.858,2.631a.268.268,0,0,0,.063.374l2.631,1.926a.274.274,0,0,0,.379-.053l1.879-2.463a.263.263,0,0,0-.053-.374l-2.631-2.079a.263.263,0,0,0-.41.037Z" transform="translate(-542.639 -162.322)" fill="#464a5f"/>
    <path id="Path_90" data-name="Path 90" d="M1018.688,306.216l-1.852,2.631a.274.274,0,0,0,.058.374l2.631,1.926a.268.268,0,0,0,.374-.053l1.878-2.457a.274.274,0,0,0-.047-.379l-2.631-2.078a.268.268,0,0,0-.411.037Z" transform="translate(-545.937 -164.694)" fill="#464a5f"/>
    <path id="Path_91" data-name="Path 91" d="M1026.478,311.816l-1.852,2.631a.274.274,0,0,0,.058.374l2.631,1.926a.268.268,0,0,0,.374-.053l1.879-2.457a.273.273,0,0,0-.047-.379l-2.631-2.079a.268.268,0,0,0-.41.037Z" transform="translate(-549.628 -167.347)" fill="#464a5f"/>
    <path id="Path_92" data-name="Path 92" d="M1034.026,317.249l-1.852,2.631a.268.268,0,0,0,.058.374l2.631,1.931a.274.274,0,0,0,.374-.053l1.878-2.463a.274.274,0,0,0-.047-.379l-2.631-2.079a.274.274,0,0,0-.41.037Z" transform="translate(-553.203 -169.922)" fill="#464a5f"/>
    <path id="Path_93" data-name="Path 93" d="M974.843,286.487l-1.489,2.1a.579.579,0,0,0,.126.8l2.1,1.579a.579.579,0,0,0,.805-.116l1.51-1.978a.579.579,0,0,0-.1-.805l-2.147-1.689a.579.579,0,0,0-.81.105Z" transform="translate(-525.308 -155.295)" fill="#464a5f"/>
    <path id="Path_94" data-name="Path 94" d="M982.7,292.137l-1.489,2.1a.579.579,0,0,0,.126.8l2.1,1.579a.579.579,0,0,0,.805-.116l1.51-1.979a.579.579,0,0,0-.1-.805l-2.147-1.689a.579.579,0,0,0-.81.105Z" transform="translate(-529.032 -157.972)" fill="#464a5f"/>
    <path id="Path_95" data-name="Path 95" d="M990.563,297.8l-1.489,2.1a.579.579,0,0,0,.126.8l2.1,1.579a.584.584,0,0,0,.805-.116l1.51-1.979a.579.579,0,0,0-.1-.805l-2.147-1.694A.584.584,0,0,0,990.563,297.8Z" transform="translate(-532.756 -160.652)" fill="#464a5f"/>
    <path id="Path_96" data-name="Path 96" d="M998.423,303.436l-1.489,2.1a.579.579,0,0,0,.126.8l2.1,1.579a.584.584,0,0,0,.805-.116l1.51-1.979a.579.579,0,0,0-.1-.805l-2.147-1.694a.584.584,0,0,0-.81.111Z" transform="translate(-536.48 -163.325)" fill="#464a5f"/>
    <path id="Path_97" data-name="Path 97" d="M1006.363,308.671l-1.857,2.631a.268.268,0,0,0,.063.374l2.631,1.926a.274.274,0,0,0,.379-.053l1.879-2.463a.268.268,0,0,0-.047-.374l-2.631-2.1a.274.274,0,0,0-.416.063Z" transform="translate(-540.095 -165.849)" fill="#464a5f"/>
    <path id="Path_98" data-name="Path 98" d="M1013.288,313.671l-1.852,2.631a.268.268,0,0,0,.063.374l2.631,1.926a.268.268,0,0,0,.374-.053l1.879-2.463a.268.268,0,0,0-.047-.374l-2.631-2.1a.274.274,0,0,0-.416.063Z" transform="translate(-543.378 -168.218)" fill="#464a5f"/>
    <path id="Path_99" data-name="Path 99" d="M1021.113,319.271l-1.858,2.631a.268.268,0,0,0,.063.374l2.631,1.926a.268.268,0,0,0,.373-.053l1.879-2.463a.263.263,0,0,0-.047-.374l-2.631-2.1a.268.268,0,0,0-.41.063Z" transform="translate(-547.083 -170.872)" fill="#464a5f"/>
    <path id="Path_100" data-name="Path 100" d="M1028.658,324.7l-1.852,2.631a.274.274,0,0,0,.058.374l2.631,1.931a.268.268,0,0,0,.374-.058l1.879-2.457a.274.274,0,0,0-.047-.379l-2.631-2.1a.274.274,0,0,0-.41.063Z" transform="translate(-550.661 -173.447)" fill="#464a5f"/>
    <path id="Path_101" data-name="Path 101" d="M1041.573,322.66l-1.858,2.631a.268.268,0,0,0,.063.374l2.631,1.926a.274.274,0,0,0,.379-.053l1.879-2.457a.274.274,0,0,0-.047-.379l-2.631-2.078a.263.263,0,0,0-.416.037Z" transform="translate(-556.777 -172.482)" fill="#464a5f"/>
    <path id="Path_102" data-name="Path 102" d="M1049.118,328.084l-1.852,2.631a.274.274,0,0,0,.058.374l2.631,1.931a.268.268,0,0,0,.374-.058l1.879-2.457a.274.274,0,0,0-.047-.379l-2.631-2.1a.274.274,0,0,0-.41.063Z" transform="translate(-560.355 -175.048)" fill="#464a5f"/>
    <path id="Path_103" data-name="Path 103" d="M1015.365,327.353l-1.747,2.463a.358.358,0,0,0,.079.5l2.468,1.821a.368.368,0,0,0,.526-.074l1.768-2.315a.363.363,0,0,0-.063-.526l-2.489-1.963a.368.368,0,0,0-.542.095Z" transform="translate(-544.403 -174.681)" fill="#464a5f"/>
    <path id="Path_104" data-name="Path 104" d="M1022.892,332.79l-1.742,2.457a.368.368,0,0,0,.079.526l2.468,1.821a.358.358,0,0,0,.526-.074l1.773-2.315a.363.363,0,0,0-.068-.526l-2.489-1.963a.363.363,0,0,0-.547.074Z" transform="translate(-547.968 -177.261)" fill="#464a5f"/>
    <path id="Path_105" data-name="Path 105" d="M1030.449,338.2l-1.747,2.463a.363.363,0,0,0,.084.5l2.463,1.821a.363.363,0,0,0,.526-.074l1.768-2.315a.358.358,0,0,0-.063-.526l-2.489-1.963a.368.368,0,0,0-.542.095Z" transform="translate(-551.552 -179.821)" fill="#464a5f"/>
    <path id="Path_106" data-name="Path 106" d="M1038.018,343.524l-1.852,2.631a.274.274,0,0,0,.058.374l2.631,1.931a.268.268,0,0,0,.374-.058l1.879-2.457a.274.274,0,0,0-.047-.379l-2.631-2.1a.274.274,0,0,0-.41.063Z" transform="translate(-555.096 -182.364)" fill="#464a5f"/>
    <path id="Path_107" data-name="Path 107" d="M959.313,275.517l-1.579,2.257a.579.579,0,0,0,.137.805l6.183,4.4a.579.579,0,0,0,.795-.121l1.684-2.194a.573.573,0,0,0-.126-.821l-6.278-4.462a.579.579,0,0,0-.816.137Z" transform="translate(-517.908 -150.086)" fill="#464a5f"/>
    <path id="Path_108" data-name="Path 108" d="M1035.977,330.207l-1.942,2.763a.268.268,0,0,0,.063.374l6.677,4.736a.268.268,0,0,0,.368-.058l2.057-2.684a.269.269,0,0,0-.058-.384l-6.788-4.825a.269.269,0,0,0-.379.079Z" transform="translate(-554.086 -176.056)" fill="#464a5f"/>
    <path id="Path_109" data-name="Path 109" d="M984.683,305.42l-1.868,2.568a.279.279,0,0,0,.058.379l14.47,10.671a.268.268,0,0,0,.374-.058l2.042-2.678a.268.268,0,0,0-.058-.384l-14.639-10.556a.268.268,0,0,0-.379.058Z" transform="translate(-529.818 -164.318)" fill="#464a5f"/>
    <path id="Path_110" data-name="Path 110" d="M962.666,310.6l-8.188,11.329a1.468,1.468,0,0,0,.316,2.042l21.132,15.623a1.473,1.473,0,0,0,2.063-.316L986.44,327.7a1.468,1.468,0,0,0-.326-2.063l-21.4-15.391A1.473,1.473,0,0,0,962.666,310.6Z" transform="translate(-516.283 -166.531)" opacity="0.1"/>
    <path id="Path_111" data-name="Path 111" d="M962.544,309.86l-8.193,11.324a1.479,1.479,0,0,0,.321,2.047L975.8,338.853a1.474,1.474,0,0,0,2.063-.316l8.451-11.576a1.473,1.473,0,0,0-.332-2.063L964.6,309.507A1.473,1.473,0,0,0,962.544,309.86Z" transform="translate(-516.225 -166.18)" fill="#939498"/>
    <path id="Path_112" data-name="Path 112" d="M972.18,210.033l.353,17.717,53.373,38.239-.474-17.549a3.073,3.073,0,0,0-1.252-2.41l-51.042-36.508a.61.61,0,0,0-.958.51Z" transform="translate(-524.802 -118.884)" fill="#4285f4"/>
    <rect id="Rectangle_1" data-name="Rectangle 1" width="32.119" height="47.758" rx="2.91" transform="translate(-1.154 186.543) rotate(-35.68)" fill="#3a3768"/>
    <rect id="Rectangle_2" data-name="Rectangle 2" width="26.636" height="9.387" rx="0.18" transform="translate(3.625 188.164) rotate(-35.68)" opacity="0.1"/>
    <rect id="Rectangle_3" data-name="Rectangle 3" width="26.236" height="9.082" rx="3.35" transform="translate(3.87 188.209) rotate(-35.68)" fill="#e6e8ec"/>
    <rect id="Rectangle_4" data-name="Rectangle 4" width="5.299" height="5.888" rx="1.39" transform="translate(12.138 198.425) rotate(-35.68)" opacity="0.1"/>
    <rect id="Rectangle_5" data-name="Rectangle 5" width="5.279" height="5.866" rx="1.385" transform="translate(16.515 194.436) rotate(-35.605)" opacity="0.1"/>
    <rect id="Rectangle_6" data-name="Rectangle 6" width="5.299" height="5.888" rx="1.39" transform="translate(22.656 190.871) rotate(-35.68)" opacity="0.1"/>
    <rect id="Rectangle_7" data-name="Rectangle 7" width="5.299" height="5.888" rx="1.59" transform="translate(27.99 187.199) rotate(-35.68)" opacity="0.1"/>
    <rect id="Rectangle_8" data-name="Rectangle 8" width="5.299" height="5.888" rx="1.39" transform="translate(15.909 203.688) rotate(-35.68)" opacity="0.1"/>
    <rect id="Rectangle_9" data-name="Rectangle 9" width="5.299" height="5.888" rx="1.39" transform="translate(21.174 199.907) rotate(-35.68)" opacity="0.1"/>
    <rect id="Rectangle_10" data-name="Rectangle 10" width="5.299" height="5.888" rx="1.39" transform="translate(26.429 196.129) rotate(-35.68)" opacity="0.1"/>
    <rect id="Rectangle_11" data-name="Rectangle 11" width="5.299" height="5.888" rx="1.39" transform="translate(20.084 209.489) rotate(-35.68)" opacity="0.1"/>
    <rect id="Rectangle_12" data-name="Rectangle 12" width="5.299" height="5.888" rx="1.39" transform="translate(25.34 205.711) rotate(-35.68)" opacity="0.1"/>
    <rect id="Rectangle_13" data-name="Rectangle 13" width="5.299" height="5.888" rx="1.39" transform="translate(30.602 201.94) rotate(-35.68)" opacity="0.1"/>
    <rect id="Rectangle_14" data-name="Rectangle 14" width="5.299" height="5.888" rx="1.39" transform="translate(34.768 207.744) rotate(-35.68)" opacity="0.1"/>
    <rect id="Rectangle_15" data-name="Rectangle 15" width="5.299" height="5.888" rx="0.91" transform="translate(31.762 192.454) rotate(-35.68)" opacity="0.1"/>
    <rect id="Rectangle_16" data-name="Rectangle 16" width="11.771" height="5.888" rx="2.18" transform="translate(24.247 215.293) rotate(-35.68)" opacity="0.1"/>
    <rect id="Rectangle_17" data-name="Rectangle 17" width="5.804" height="13.034" rx="2.07" transform="translate(35.445 198.455) rotate(-35.68)" opacity="0.1"/>
    <rect id="Rectangle_18" data-name="Rectangle 18" width="2.321" height="0.253" transform="translate(26.713 181.041) rotate(-35.68)" fill="#4285f4"/>
    <rect id="Rectangle_19" data-name="Rectangle 19" width="2.321" height="0.253" transform="translate(23.954 183.02) rotate(-35.68)" fill="#4285f4"/>
    <rect id="Rectangle_20" data-name="Rectangle 20" width="2.321" height="0.253" transform="translate(21.195 184.999) rotate(-35.68)" fill="#4285f4"/>
    <rect id="Rectangle_21" data-name="Rectangle 21" width="2.321" height="0.253" transform="translate(18.439 186.982) rotate(-35.68)" fill="#4285f4"/>
    <g id="Group_3" data-name="Group 3" transform="translate(297.468 35.719)" opacity="0.1">
      <path id="Path_113" data-name="Path 113" d="M721.867,105.25H689.005a1.721,1.721,0,0,0-1.715,1.715v20.78a1.726,1.726,0,0,0,1.715,1.721h25.784s.668,3.541-1.526,3.925c0,0,4.915.353,4.057-3.925h4.546a1.726,1.726,0,0,0,1.721-1.721v-20.78A1.726,1.726,0,0,0,721.867,105.25Z" transform="translate(-687.29 -105.25)"/>
      <g id="Group_2" data-name="Group 2" transform="translate(4.841 5.509)" opacity="0.2">
        <rect id="Rectangle_22" data-name="Rectangle 22" width="26.615" height="1.621" rx="0.81"/>
        <rect id="Rectangle_23" data-name="Rectangle 23" width="26.615" height="1.621" rx="0.81" transform="translate(0 7.251)"/>
        <rect id="Rectangle_24" data-name="Rectangle 24" width="22.321" height="1.621" rx="0.81" transform="translate(0 10.877)"/>
        <rect id="Rectangle_25" data-name="Rectangle 25" width="11.54" height="1.621" rx="0.81" transform="translate(0 3.626)"/>
      </g>
    </g>
    <path id="Path_114" data-name="Path 114" d="M722.407,105H689.551a1.721,1.721,0,0,0-1.721,1.715v20.759a1.72,1.72,0,0,0,1.721,1.731h25.784s.668,3.547-1.526,3.925c0,0,4.91.353,4.052-3.925h4.557a1.721,1.721,0,0,0,1.715-1.715V106.7a1.721,1.721,0,0,0-1.726-1.7Z" transform="translate(-390.078 -69.413)" fill="#f9fafb"/>
    <g id="Group_4" data-name="Group 4" transform="translate(302.593 41.086)" opacity="0.2">
      <rect id="Rectangle_26" data-name="Rectangle 26" width="26.615" height="1.621" rx="0.81" fill="#4285f4"/>
      <rect id="Rectangle_27" data-name="Rectangle 27" width="26.615" height="1.621" rx="0.81" transform="translate(0 7.251)" fill="#4285f4"/>
      <rect id="Rectangle_28" data-name="Rectangle 28" width="22.321" height="1.621" rx="0.81" transform="translate(0 10.871)" fill="#4285f4"/>
      <rect id="Rectangle_29" data-name="Rectangle 29" width="11.54" height="1.621" rx="0.81" transform="translate(0 3.626)" fill="#4285f4"/>
    </g>
    <g id="Group_6" data-name="Group 6" transform="translate(322.183 0.332)" opacity="0.1">
      <path id="Path_115" data-name="Path 115" d="M775.84,38H736.322a2.068,2.068,0,0,0-2.063,2.1V65.047a2.068,2.068,0,0,0,2.063,2.068h31s.8,4.262-1.836,4.736c0,0,5.909.421,4.873-4.736h5.478a2.073,2.073,0,0,0,2.068-2.068V40.1A2.068,2.068,0,0,0,775.84,38Z" transform="translate(-734.259 -38)"/>
      <g id="Group_5" data-name="Group 5" transform="translate(5.82 6.641)" opacity="0.2">
        <rect id="Rectangle_30" data-name="Rectangle 30" width="32.014" height="1.952" rx="0.976"/>
        <rect id="Rectangle_31" data-name="Rectangle 31" width="26.415" height="1.952" rx="0.976" transform="translate(0 8.719)"/>
        <rect id="Rectangle_32" data-name="Rectangle 32" width="19.017" height="1.952" rx="0.976" transform="translate(0 4.362)"/>
      </g>
    </g>
    <path id="Path_116" data-name="Path 116" d="M776.82,37.37H737.3a2.068,2.068,0,0,0-2.063,2.068V64.406a2.068,2.068,0,0,0,2.063,2.063h31s.8,4.262-1.836,4.736c0,0,5.909.426,4.878-4.736h5.473a2.073,2.073,0,0,0,2.068-2.063V39.438A2.073,2.073,0,0,0,776.82,37.37Z" transform="translate(-412.541 -37.37)" fill="#f9fafb"/>
    <g id="Group_7" data-name="Group 7" transform="translate(328.519 6.63)" opacity="0.2">
      <rect id="Rectangle_33" data-name="Rectangle 33" width="32.014" height="1.952" rx="0.976" fill="#4285f4"/>
      <rect id="Rectangle_34" data-name="Rectangle 34" width="26.415" height="1.952" rx="0.976" transform="translate(0 8.719)" fill="#4285f4"/>
      <rect id="Rectangle_35" data-name="Rectangle 35" width="19.017" height="1.952" rx="0.976" transform="translate(0 4.357)" fill="#4285f4"/>
    </g>
    <path id="Path_117" data-name="Path 117" d="M318.033,541.359l35.692-13.334a3.389,3.389,0,0,1,4.367,1.994h0a3.394,3.394,0,0,1-1.989,4.367l-35.692,13.334-7.651-.768Z" transform="translate(-212.371 -269.739)" fill="#be8b87"/>
    <path id="Path_118" data-name="Path 118" d="M357.014,529.436h0a3.4,3.4,0,0,1-1.989,4.373l-35.692,13.334-5.741-.579-.831.879,7.651.768L356.1,534.877a3.394,3.394,0,0,0,1.989-4.367h0a3.384,3.384,0,0,0-1.389-1.7A3.3,3.3,0,0,1,357.014,529.436Z" transform="translate(-212.371 -270.213)" fill="#fff" opacity="0.1"/>
    <path id="Path_119" data-name="Path 119" d="M197.1,516.19l2.378,6.362-6.278-.632-1.373-.137,1.873-1.989Z" transform="translate(-91.435 -244.57)" fill="#efc8c4"/>
    <path id="Path_120" data-name="Path 120" d="M314.639,560.41a1.379,1.379,0,0,1,.363.4.573.573,0,0,1,0,.621,1.459,1.459,0,0,1-.342.247,1.147,1.147,0,0,0-.526.858l-1.373-.137Z" transform="translate(-212.371 -285.185)" fill="#727a9c"/>
    <g id="Group_8" data-name="Group 8" transform="translate(322.87 242.694)" opacity="0.5">
      <rect id="Rectangle_36" data-name="Rectangle 36" width="11.733" height="38.373" transform="translate(0 2.928) rotate(-14.452)" fill="url(#linear-gradient)"/>
    </g>
    <rect id="Rectangle_37" data-name="Rectangle 37" width="11.153" height="37.856" transform="translate(323.301 245.778) rotate(-14.452)" fill="#f9fafb"/>
    <rect id="Rectangle_38" data-name="Rectangle 38" width="7.885" height="7.885" transform="translate(325.038 245.946) rotate(-14.452)" fill="#f7b643"/>
    <rect id="Rectangle_39" data-name="Rectangle 39" width="7.872" height="7.872" transform="translate(327.119 253.661) rotate(-14.61)" fill="#f7b643" opacity="0.5"/>
    <rect id="Rectangle_40" data-name="Rectangle 40" width="7.872" height="7.872" transform="translate(329.514 262.857) rotate(-14.61)" fill="#f7b643" opacity="0.3"/>
    <g id="Group_9" data-name="Group 9" transform="translate(312.585 246.503)" opacity="0.5">
      <rect id="Rectangle_41" data-name="Rectangle 41" width="11.713" height="38.165" transform="translate(0 6.371) rotate(-32.95)" fill="url(#linear-gradient-2)"/>
    </g>
    <rect id="Rectangle_42" data-name="Rectangle 42" width="11.134" height="37.65" transform="translate(313.04 252.878) rotate(-32.95)" fill="#f9fafb"/>
    <rect id="Rectangle_43" data-name="Rectangle 43" width="7.872" height="7.872" transform="translate(314.748 252.499) rotate(-32.95)" fill="#f97878"/>
    <rect id="Rectangle_44" data-name="Rectangle 44" width="7.872" height="7.872" transform="translate(319.92 260.469) rotate(-32.95)" fill="#f97878" opacity="0.5"/>
    <rect id="Rectangle_45" data-name="Rectangle 45" width="7.872" height="7.872" transform="translate(325.09 268.446) rotate(-32.95)" fill="#f97878" opacity="0.3"/>
    <g id="Group_10" data-name="Group 10" transform="translate(308.07 250.792)" opacity="0.5">
      <rect id="Rectangle_46" data-name="Rectangle 46" width="11.713" height="38.165" transform="translate(0 8.232) rotate(-44.65)" fill="url(#linear-gradient-3)"/>
    </g>
    <rect id="Rectangle_47" data-name="Rectangle 47" width="11.134" height="37.65" transform="translate(308.526 258.933) rotate(-44.65)" fill="#f9fafb"/>
    <rect id="Rectangle_48" data-name="Rectangle 48" width="7.872" height="7.872" transform="translate(310.119 258.222) rotate(-44.65)" fill="#73b53b"/>
    <rect id="Rectangle_49" data-name="Rectangle 49" width="7.872" height="7.872" transform="translate(316.795 264.98) rotate(-44.65)" fill="#73b53b" opacity="0.5"/>
    <rect id="Rectangle_50" data-name="Rectangle 50" width="7.872" height="7.872" transform="translate(323.468 271.74) rotate(-44.65)" fill="#73b53b" opacity="0.3"/>
    <g id="Group_11" data-name="Group 11" transform="translate(305.983 254.669)" opacity="0.5">
      <rect id="Rectangle_51" data-name="Rectangle 51" width="11.713" height="38.165" transform="translate(0 9.211) rotate(-51.85)" fill="url(#linear-gradient-4)"/>
    </g>
    <rect id="Rectangle_52" data-name="Rectangle 52" width="11.134" height="37.65" transform="translate(306.417 263.733) rotate(-51.85)" fill="#fff"/>
    <rect id="Rectangle_53" data-name="Rectangle 53" width="7.872" height="7.872" transform="translate(307.906 262.826) rotate(-51.85)" fill="#4285f4"/>
    <rect id="Rectangle_54" data-name="Rectangle 54" width="7.872" height="7.872" transform="translate(315.377 268.697) rotate(-51.85)" fill="#4285f4" opacity="0.5"/>
    <rect id="Rectangle_55" data-name="Rectangle 55" width="7.872" height="7.872" transform="translate(322.857 274.564) rotate(-51.85)" fill="#4285f4" opacity="0.3"/>
    <path id="Path_121" data-name="Path 121" d="M934.9,597.943a8.125,8.125,0,1,0,3.962,10.792A8.125,8.125,0,0,0,934.9,597.943Zm-5.53,11.945a5.031,5.031,0,1,1,3.85.159A5.036,5.036,0,0,1,929.373,609.888Z" transform="translate(-501.676 -302.612)" fill="#f0cbc6"/>
    <path id="Path_122" data-name="Path 122" d="M909.7,559l-15.118,10.635a7.4,7.4,0,0,0-3.194,6.057c0,3.82,1.742,9.556,10.077,14.734a7.54,7.54,0,0,0,8.161-.132l14.734-9.856Z" transform="translate(-486.524 -284.517)" fill="#f0cbc6"/>
    <path id="Path_123" data-name="Path 123" d="M941.723,579.275c-2.426,2.015-8.177-.937-12.855-6.588s-6.509-11.855-4.083-13.865,8.188.942,12.866,6.588c.295.363.589.726.858,1.089l.305.416a21.676,21.676,0,0,1,3.747,7.593c.053.253.105.5.137.742C942.976,577.034,942.681,578.491,941.723,579.275Z" transform="translate(-501.839 -284.134)" fill="#f0cbc6"/>
    <ellipse id="Ellipse_2" data-name="Ellipse 2" cx="4.61" cy="10.74" rx="4.61" ry="10.74" transform="translate(421.017 279.566) rotate(-39.63)" fill="#f9fafb"/>
    <path id="Path_124" data-name="Path 124" d="M942.224,578.618c-.037.068-.079.132-.116.195a2.107,2.107,0,0,1-.374.4c-1.194.995-3.394.495-5.788-1.052l-.247-.168a19.562,19.562,0,0,1-2.231-1.8,24.123,24.123,0,0,1-2.136-2.278,19.255,19.255,0,0,1-1.258-1.652,20.619,20.619,0,0,1-1.5-2.494.863.863,0,0,1-.053-.095c-1.579-3.1-1.847-5.851-.489-6.972,1.963-1.626,6.62.763,10.4,5.33a18.5,18.5,0,0,1,1.252,1.658c.084.11.163.226.237.342C942.261,573.488,943.187,576.9,942.224,578.618Z" transform="translate(-503.471 -286.029)" opacity="0.1"/>
    <path id="Path_125" data-name="Path 125" d="M945.468,582.013a3.373,3.373,0,0,1-1.726,1.621l-.242.084a2.689,2.689,0,0,1-.526.105,4.383,4.383,0,0,1-1.847-.216c-2.484-.784-3.631-.768-4.152-.526a19.551,19.551,0,0,1-2.231-1.8A24.132,24.132,0,0,1,932.607,579a19.3,19.3,0,0,1-1.258-1.652,20.589,20.589,0,0,1-1.5-2.494c2.51,1,7.4,2.768,9.051,2.015a5.148,5.148,0,0,0,1.894-1.831h0l.163-.253.068-.111c.131-.216.263-.426.379-.647A21.752,21.752,0,0,1,945.468,582.013Z" transform="translate(-504.747 -291.638)" opacity="0.1"/>
    <path id="Path_126" data-name="Path 126" d="M945.6,583.105a3.4,3.4,0,0,1-2.1,1.984,2.634,2.634,0,0,1-.526.105h0a4.382,4.382,0,0,1-1.847-.216,10.531,10.531,0,0,0-3.557-.668,1.737,1.737,0,0,0-.595.126,19.563,19.563,0,0,1-2.231-1.8,24.122,24.122,0,0,1-2.136-2.278,19.279,19.279,0,0,1-1.258-1.652,20.191,20.191,0,0,1-1.5-2.494c.11.047.221.095.347.137,2.594,1.021,7.13,2.594,8.7,1.884a5.174,5.174,0,0,0,1.9-1.847l.163-.253.068-.111a1.692,1.692,0,0,0,.1-.163,12.1,12.1,0,0,0,.584-1.089,21.676,21.676,0,0,1,3.747,7.593C945.52,582.616,945.573,582.863,945.6,583.105Z" transform="translate(-504.747 -291.989)" opacity="0.1"/>
    <path id="Path_127" data-name="Path 127" d="M951.614,556.142a7.46,7.46,0,0,1-1.947,1.116,6.315,6.315,0,0,0-3.747,7.177l.032.132c.858,3.615.484,8.667-2.452,9.508a2.7,2.7,0,0,1-.526.105,4.383,4.383,0,0,1-1.847-.216c-2.484-.784-3.631-.768-4.152-.526a19.563,19.563,0,0,1-2.231-1.8,24.147,24.147,0,0,1-2.136-2.278,19.261,19.261,0,0,1-1.258-1.652,20.6,20.6,0,0,1-1.5-2.494c2.51,1,7.4,2.768,9.051,2.021a5.173,5.173,0,0,0,1.9-1.847l.163-.253.068-.111a12.729,12.729,0,0,0,1.879-5.9c.195-2.841,1.452-7.777,7.977-6.23a1.847,1.847,0,0,1,.726,3.247Z" transform="translate(-504.747 -281.486)" fill="#59393c"/>
    <path id="Path_128" data-name="Path 128" d="M808.838,820.274s-22.248-1.342-19.622,14.249a3.793,3.793,0,0,0,1.973,4s.042-1.158,2.284-.763a10.187,10.187,0,0,0,2.415.116,5,5,0,0,0,2.957-1.221h0s6.251-2.584,8.688-12.8c0,0,1.794-2.231,1.726-2.8l-3.757,1.6s1.284,2.71.274,4.957c0,0-.121-4.857-.842-4.736-.147,0-1.952.942-1.952.942s2.21,4.736.526,8.146c0,0,.637-5.788-1.231-7.8l-2.631,1.542s2.578,4.873.831,8.845c0,0,.447-6.093-1.384-8.472l-2.394,1.868s2.42,4.8.942,8.1c0,0-.189-7.1-1.463-7.635a13.778,13.778,0,0,0-2.415,2.631s1.663,3.484.631,5.325c0,0-.631-4.736-1.152-4.736,0,0-2.1,3.157-2.3,5.262a11.408,11.408,0,0,1,1.794-5.583,6.256,6.256,0,0,0-3.194,1.652s.326-2.215,3.71-2.4a14.612,14.612,0,0,1,2.189-2.526,13.745,13.745,0,0,0-5.409.626s1.794-2.1,6.025-1.142l2.363-1.931s-4.431-.605-6.314.068c0,0,2.168-1.852,6.951-.526l2.578-1.536a23.48,23.48,0,0,0-6.036-.526s2.378-1.284,6.788.105l1.842-.826s-2.773-.526-3.583-.631-.852-.31-.852-.31a9.609,9.609,0,0,1,5.2.579S808.906,820.521,808.838,820.274Z" transform="translate(-438.013 -408.295)" fill="#4285f4"/>
    <ellipse id="Ellipse_3" data-name="Ellipse 3" cx="15.744" cy="2.663" rx="15.744" ry="2.663" transform="translate(339.759 428.928)" fill="#4285f4" opacity="0.1"/>
    <path id="Path_129" data-name="Path 129" d="M897.74,742.225s-12.539-.758-11.05,8.03a2.142,2.142,0,0,0,1.116,2.257s0-.647,1.284-.426a5.854,5.854,0,0,0,1.363.063,2.847,2.847,0,0,0,1.668-.689h0s3.526-1.452,4.894-7.219c0,0,1.016-1.252.974-1.579l-2.1.9a3.8,3.8,0,0,1,.153,2.794s-.068-2.742-.474-2.673c-.084,0-1.1.526-1.1.526s1.247,2.663.305,4.594c0,0,.358-3.278-.695-4.4l-1.489.847s1.452,2.747.468,4.988c0,0,.253-3.436-.779-4.778l-1.352,1.052s1.368,2.7.526,4.562c0,0-.105-4-.826-4.3a8.131,8.131,0,0,0-1.358,1.473s.931,1.963.352,3c0,0-.353-2.668-.647-2.678a8.84,8.84,0,0,0-1.3,2.978,6.44,6.44,0,0,1,1.016-3.157,3.562,3.562,0,0,0-1.8.931s.184-1.247,2.1-1.358a8.188,8.188,0,0,1,1.231-1.421,7.723,7.723,0,0,0-3.047.353s1.01-1.179,3.394-.642l1.337-1.089a11,11,0,0,0-3.562.037s1.221-1.052,3.92-.284l1.452-.868a13.269,13.269,0,0,0-3.4-.295,5.231,5.231,0,0,1,3.831.063l1.052-.468s-1.578-.305-2.021-.353-.479-.179-.479-.179a5.41,5.41,0,0,1,2.931.326A12.541,12.541,0,0,0,897.74,742.225Z" transform="translate(-484.239 -371.321)" fill="#4285f4"/>
    <ellipse id="Ellipse_4" data-name="Ellipse 4" cx="8.877" cy="1.5" rx="8.877" ry="1.5" transform="translate(395.989 380.46)" fill="#4285f4" opacity="0.1"/>
    <path id="Path_130" data-name="Path 130" d="M754.953,756.712s-15.139-.916-13.355,9.7a2.589,2.589,0,0,0,1.347,2.726s.026-.784,1.579-.526a7.154,7.154,0,0,0,1.642.079,3.478,3.478,0,0,0,2.015-.831h0s4.257-1.758,5.909-8.719c0,0,1.226-1.515,1.179-1.9l-2.557,1.089a4.583,4.583,0,0,1,.184,3.378s-.079-3.31-.574-3.231c-.1,0-1.326.637-1.326.637s1.5,3.215.368,5.546c0,0,.431-3.957-.837-5.315l-1.8,1.052s1.758,3.315.563,6.025c0,0,.305-4.152-.942-5.788l-1.631,1.268s1.652,3.268.647,5.515c0,0-.132-4.831-1-5.2a9.8,9.8,0,0,0-1.642,1.779s1.131,2.368.426,3.626c0,0-.426-3.22-.779-3.236a10.563,10.563,0,0,0-1.579,3.594,7.74,7.74,0,0,1,1.221-3.8,4.278,4.278,0,0,0-2.173,1.126s.221-1.51,2.526-1.642a9.9,9.9,0,0,1,1.489-1.716,9.37,9.37,0,0,0-3.683.426s1.221-1.426,4.1-.779l1.61-1.31s-3.02-.416-4.3.042c0,0,1.473-1.258,4.736-.342l1.752-1.052a17.285,17.285,0,0,0-4.11-.353s1.621-.873,4.62.074l1.258-.563s-1.889-.374-2.442-.431-.579-.211-.579-.211a6.54,6.54,0,0,1,3.541.395A15.372,15.372,0,0,0,754.953,756.712Z" transform="translate(-415.484 -378.183)" fill="#4285f4"/>
    <ellipse id="Ellipse_5" data-name="Ellipse 5" cx="10.719" cy="1.81" rx="10.719" ry="1.81" transform="translate(318.326 390.068)" fill="#4285f4" opacity="0.1"/>
    <path id="Path_131" data-name="Path 131" d="M574.061,224.171s.821-2.457-.326-3.731l-2.378-2.631-12.1-17.554s-2.947-3.494-2.457-5.557-2.784-4.289-2.784-4.289,1.779-2.2.737-3.52-2.7-3.336-2.7-4.052-6.288-10-14.481-12.26l.253-.184a12.982,12.982,0,0,0-1.437-.237c-5.93-.653-8.735-.989-13.834-3.157l-.274.289-.705-.289c-1.436-.61-3.052-1.358-4.967-2.3s-3.973-1.989-6.483-3.294a17.281,17.281,0,0,1-3.157-5.836c-.089-.263-.168-.526-.242-.816a18.007,18.007,0,0,0,9.167-15.591,17.6,17.6,0,0,0-2.41-8.909c-.1-.174-.216-.337-.321-.526.037-.042.074-.079.105-.121a4.153,4.153,0,0,0,.295-.453,7.239,7.239,0,0,0,.437-.989c.063-.168.121-.337.179-.526.237-.689.474-1.379.716-2.068l.71-2.068a13.735,13.735,0,0,0,.868-3.883,5.03,5.03,0,0,0-.2-1.663,4.265,4.265,0,0,0-.326-.768,3.922,3.922,0,0,0-.232-.368c-1.2-1.694-3.773-2.4-4.325-4.389a3.682,3.682,0,0,1-.11-.963c0-.347,0-.7,0-1.052V110a2.856,2.856,0,0,0-.042-.426,3.367,3.367,0,0,0-.11-.468.12.12,0,0,0-.037-.105,3.751,3.751,0,0,0-.179-.421h0a3.465,3.465,0,0,0-.258-.421.4.4,0,0,0-.042-.058,6.9,6.9,0,0,0-3.625-2.315,14.281,14.281,0,0,0-9.8.631,3.194,3.194,0,0,1-1.379.41c-.779,0-1.379-.642-2.052-1.021-2.168-1.226-4.883.074-6.967,1.431a10.681,10.681,0,0,0-2.773,2.326c-.684.905-1.052,1.989-1.7,2.926-2,2.973-5.988,3.931-8.877,6.109a14.439,14.439,0,0,0-5.3,9.966,27.622,27.622,0,0,0,1.5,11.35,12.682,12.682,0,0,0,.437,1.205c-.447,5.067,1.652,11.519,1.952,12.629.495,1.826-5.893,7.625-5.893,7.625L446.467,178.4s-.079-.489-2.6-.31-7.246,5.9-7.246,5.9l.379.032c-.242.279-.379.447-.379.447l1.026.084c-3.052,2.631-6.651,5.788-8.519,7.635-.526.495-.947.921-1.252,1.252-2.631,2.857-.9,10.724-.9,10.724s-.41,4.841,7.209,5.478c0,0,8.845,1.747,13.187,0s12.587-2.184,12.587-2.184-3.373,11.319-3.157,14.655S454.55,237.3,454.55,237.3l-7.535,39.607s-7.051,13.765,14.207,15.786v.642s.526.079,1.352.168c-.037.453-.074.926-.11,1.415a78.893,78.893,0,0,0-.426,8.1,3.735,3.735,0,0,0,1.315,1.51l.821,6.988s.816,6.02,1.579,7.777,2.631,6.441,2.294,7.951,1.226,6.509,1.226,6.509.737,4.846.984,6.035,0,13.024,0,13.024a22.551,22.551,0,0,0,4.836,1.736c.047.189.095.389.147.589.774,3.157,1.857,7.535,2.452,9.814.979,3.81,3.11,10.482,3.11,10.482s.242,8.661,1.715,10.329,1.147,18.028,7.367,28.031c4.467,7.183,9.945,20.78,12.681,27.889-.1,3.21-.253,6.714-.474,9.708a6.967,6.967,0,0,0-1.7,3.084c-.737,3.573-5.32,9.6-5.32,9.6s-4.667,3.894-6.635,4.452a3.485,3.485,0,0,0-.989.526c-2.021,1.436-4.394,5.225.416,6.714a17.723,17.723,0,0,0,7.319.1,9.353,9.353,0,0,0,0,1.489s-2.457,6.036-3.526,8.34c-.389.842-1.263,2.052-2.036,3.331-1.358,2.242-2.4,4.688,0,5.725.737.316,13.434-.237,17.691,1.11s7.288-3.1,7.288-3.1.326-4.525,1.31-6.43c.558-1.089.163-3.478-.279-5.341h0c-.342-1.41-.705-2.515-.705-2.515a76.191,76.191,0,0,1-1.052-11.476l6.267-4.567a5.641,5.641,0,0,0,2.2-5.92l-.211-.837c-.973-3.82-2.5-9.056-4.115-11.576a10.89,10.89,0,0,1,1.052-2.689c1.963-2.857,5.573-20.569,6.472-23.274a26.744,26.744,0,0,0,.653-2.852c1.131-5.578,2.847-19.154.063-25.437l-1.426-15.344s-.816-11.75.084-16.275a76.2,76.2,0,0,0,.937-8.845v-.211l8.488.416V309.947l.742-13.923.074-1.41h0a8.943,8.943,0,0,0,1.147.316c1.61-1.026,2.015-3.526,1.942-6.088a25.559,25.559,0,0,0-.284-4.1,9.961,9.961,0,0,0,2.742-4.82l17.77-16.06.074-.142c.4-.805,2.415-4.867,3.189-7.009.71-1.979.242-12.629.058-16.165,1.163.1,2.573.21,3.915.279a15.783,15.783,0,0,0,4.5-.132c1.479-.637,3.357-5.088,4.831-7.783S574.061,224.171,574.061,224.171Zm-92.948-62.244s.416-3.952.463-8.83l2.631-.873a14.605,14.605,0,0,0,1.242,1.052q.105.526.189,1.105a25.864,25.864,0,0,1-.105,9.64c-.126.089-3.6,2.442-4.452,4.957a3.706,3.706,0,0,1-3.026,2.163,9.434,9.434,0,0,1-2.073.163s-1.284.21-3.226.526Zm17.512,189.648c-.111-.3-.205-.568-.295-.805l.226-.137v-1.826h0c.021.71.037,1.663.068,2.747Z" transform="translate(-266.221 -69.509)" fill="url(#linear-gradient-5)"/>
    <path id="Path_132" data-name="Path 132" d="M572.644,209.509s-8.877,11.334-15.986,20.269c-4.583,5.751-8.419,10.524-8.709,10.6a4.52,4.52,0,0,1-.863-.042c-3.578-.316-17.17-2.21-23.353-3.084l-3.094-.437s.195-5.346,1.016-11.829c.973-7.777,2.852-17.186,6.346-20.943a10.681,10.681,0,0,0,2.247-3.825c1.242-3.526,1.052-7.735.558-11.2a42.23,42.23,0,0,0-1.615-6.841s22.558-13.3,21.369-1.184a23.036,23.036,0,0,0,.826,9.224,15.745,15.745,0,0,0,5.115,7.893l.095.068Z" transform="translate(-310.864 -103.006)" fill="#ffb9b9"/>
    <path id="Path_133" data-name="Path 133" d="M559.1,190.24a18.059,18.059,0,0,1-20.559-1.221,42.235,42.235,0,0,0-1.615-6.841s22.558-13.3,21.369-1.184a23.036,23.036,0,0,0,.805,9.245Z" transform="translate(-318.582 -103.006)" opacity="0.1"/>
    <path id="Path_134" data-name="Path 134" d="M562.983,155.853a18.033,18.033,0,1,1-2.347-8.882A18.033,18.033,0,0,1,562.983,155.853Z" transform="translate(-313.837 -84.968)" fill="#ffb9b9"/>
    <path id="Path_135" data-name="Path 135" d="M560.63,147a3.008,3.008,0,0,1-.205.321c-1.189,1.615-3.494,1.879-5.494,1.71-2.363-.205-4.978-1.052-5.988-3.189-.931-1.979-.674-4.1-3.236-4.394-2.221-.258-5.2-1.81-7.367-.921-1.71.71-2.394,2.784-2.552,4.636s0,3.815-.863,5.462c-.816,1.552-2.4,2.584-3.231,4.131-.926,1.747-.731,3.852-.489,5.82s.489,4.052-.368,5.836a3.816,3.816,0,0,1-.253.453A18.049,18.049,0,1,1,560.63,147Z" transform="translate(-313.831 -84.995)" opacity="0.1"/>
    <path id="Path_136" data-name="Path 136" d="M539.8,130.634c1.01,2.142,3.626,2.984,5.988,3.184,2,.174,4.3-.089,5.494-1.71a6.9,6.9,0,0,0,.879-1.942l1.379-4.125c.726-2.184,1.41-4.736.111-6.656-1.163-1.689-3.652-2.394-4.183-4.378a23.256,23.256,0,0,1-.132-2.847c-.305-1.942-2.236-3.2-4.115-3.783a13.376,13.376,0,0,0-9.472.631,3.062,3.062,0,0,1-1.331.405c-.752,0-1.331-.637-1.984-1.016-2.1-1.221-4.736.074-6.73,1.426a10.339,10.339,0,0,0-2.684,2.321c-.658.9-1.052,1.979-1.642,2.915-1.936,2.963-5.788,3.915-8.577,6.088a14.463,14.463,0,0,0-5.12,9.929,28.5,28.5,0,0,0,1.447,11.313,8.059,8.059,0,0,0,.868,2.057c1.137,1.726,3.4,2.463,4.5,4.21.889,1.4.973,3.373,2.326,4.346,1.6,1.152,4.026,0,4.878-1.8s.61-3.878.368-5.841-.437-4.073.489-5.82c.821-1.547,2.421-2.578,3.231-4.131.858-1.647.71-3.61.863-5.462s.842-3.92,2.557-4.631c2.152-.895,5.13.663,7.367.916C539.122,126.535,538.864,128.65,539.8,130.634Z" transform="translate(-304.667 -70.736)" fill="#b96b6b"/>
    <g id="Group_12" data-name="Group 12" transform="translate(204.371 39.57)" opacity="0.1">
      <path id="Path_137" data-name="Path 137" d="M514.879,177.112c-1.11-1.747-3.373-2.484-4.51-4.21a.313.313,0,0,1,0-.042c.032.121.068.242.105.363a8.06,8.06,0,0,0,.868,2.057c1.137,1.726,3.4,2.463,4.5,4.21.063.1.126.205.184.316A18.428,18.428,0,0,0,514.879,177.112Z" transform="translate(-510.369 -141.135)"/>
      <path id="Path_138" data-name="Path 138" d="M585.293,114.9a3.252,3.252,0,0,0,.837,1.415,12.559,12.559,0,0,0,0-1.889,3.652,3.652,0,0,0-.905-1.857A9.833,9.833,0,0,0,585.293,114.9Z" transform="translate(-545.817 -112.57)"/>
      <path id="Path_139" data-name="Path 139" d="M542.236,137.259c-2.221-.253-5.2-1.81-7.367-.916-1.715.71-2.4,2.778-2.552,4.631s0,3.815-.868,5.462c-.81,1.552-2.4,2.584-3.226,4.131-.931,1.747-.731,3.852-.489,5.82s.484,4.052-.368,5.841-3.278,2.957-4.883,1.8a3.263,3.263,0,0,1-.942-1.131c.526,1.268.795,2.715,1.894,3.5,1.6,1.152,4.026,0,4.878-1.8s.61-3.878.368-5.841-.437-4.073.489-5.82c.821-1.547,2.421-2.578,3.231-4.131.858-1.647.71-3.61.863-5.462s.842-3.92,2.557-4.631c2.152-.895,5.13.663,7.367.916a2.521,2.521,0,0,1,1.884.979C544.54,138.984,544.346,137.506,542.236,137.259Z" transform="translate(-515.661 -123.704)"/>
      <path id="Path_140" data-name="Path 140" d="M582.082,129.536c-.079-.111-.158-.216-.242-.316a11.828,11.828,0,0,1-.821,4.6l-1.373,4.125a6.765,6.765,0,0,1-.884,1.942c-1.184,1.615-3.494,1.879-5.494,1.71-2.157-.184-4.531-.905-5.688-2.673a13.837,13.837,0,0,0,.652,1.863c1.01,2.142,3.626,2.984,5.988,3.184,2,.174,4.3-.089,5.494-1.71a6.9,6.9,0,0,0,.879-1.942c.458-1.373.921-2.747,1.379-4.125C582.7,134.008,583.382,131.435,582.082,129.536Z" transform="translate(-537.475 -120.459)"/>
    </g>
    <rect id="Rectangle_56" data-name="Rectangle 56" width="11.892" height="25.126" rx="4.67" transform="translate(203.6 62.392) rotate(-18.77)" fill="#464a5f"/>
    <rect id="Rectangle_57" data-name="Rectangle 57" width="11.892" height="25.126" rx="4.67" transform="translate(203.176 62.392) rotate(-18.77)" fill="#9c9ca1"/>
    <circle id="Ellipse_6" data-name="Ellipse 6" cx="1.868" cy="1.868" r="1.868" transform="translate(209.108 65.633)" fill="#939498"/>
    <path id="Path_141" data-name="Path 141" d="M520.49,573.007s2.294,9.656,3.247,13.455,3.01,10.45,3.01,10.45.237,8.624,1.658,10.287,1.11,17.97,7.125,27.941,13.934,32.377,13.934,32.377l1.052,7.6,10.135-11.792-8.419-43.149s-4.9-17.491-3.4-22.953-6.251-26.673-6.251-26.673Z" transform="translate(-310.793 -289.99)" fill="#ffb9b9"/>
    <path id="Path_142" data-name="Path 142" d="M560.6,663.319l-10.135,11.8-1.052-7.6s-7.893-22.4-13.934-32.377-5.7-26.273-7.125-27.936-1.658-10.292-1.658-10.292-2.057-6.651-3.01-10.45c-.568-2.268-1.615-6.641-2.368-9.777-.526-2.1-.879-3.683-.879-3.683l22.1-2.452s.247.668.637,1.8c1.826,5.236,6.841,20.38,5.615,24.874-1.5,5.462,3.41,22.953,3.41,22.953Z" transform="translate(-310.769 -289.99)" opacity="0.05"/>
    <path id="Path_143" data-name="Path 143" d="M572.677,766.381l-8.851,6.646c-4.278,4.594-16.839,8.393-22.321,6.651-4.652-1.484-2.357-5.262-.4-6.693a3.248,3.248,0,0,1,.952-.526c1.9-.558,6.414-4.436,6.414-4.436s4.431-6.014,5.141-9.577,5.788-6.493,5.788-6.493,6.8-6.646,9.893-5.3c2.015.884,4.1,8.088,5.309,12.976l.2.837a5.709,5.709,0,0,1-2.126,5.92Z" transform="translate(-319.457 -373.34)" fill="#c7c0d9"/>
    <path id="Path_144" data-name="Path 144" d="M572.677,778.245l-8.851,6.646c-4.278,4.594-16.839,8.393-22.321,6.651-4.652-1.484-2.357-5.262-.4-6.693,1.889,2.952,8.788,2.42,8.788,2.42l12.271-5.462,12.434-10.3.2.837a5.709,5.709,0,0,1-2.121,5.9Z" transform="translate(-319.457 -385.204)" opacity="0.1"/>
    <path id="Path_145" data-name="Path 145" d="M549.474,666.434s-7.893-22.406-13.929-32.377-5.7-26.279-7.125-27.941-1.663-10.287-1.663-10.287-2.057-6.651-3-10.45c-.574-2.273-1.621-6.641-2.373-9.777-.526-2.1-.879-3.683-.879-3.683l20.717-2.3-.058-.153-22.1,2.457s.368,1.579.879,3.683c.747,3.157,1.8,7.5,2.368,9.777.947,3.8,3,10.45,3,10.45s.237,8.625,1.663,10.287,1.1,17.97,7.125,27.941,13.929,32.377,13.929,32.377l1.052,7.6,1.231-1.431Z" transform="translate(-310.115 -289.473)" opacity="0.05"/>
    <rect id="Rectangle_58" data-name="Rectangle 58" width="24.695" height="28.525" transform="translate(267.006 141.138)" fill="#caa8b1"/>
    <path id="Path_146" data-name="Path 146" d="M652.372,366.114c-.747,2.131-2.694,6.178-3.084,6.977-.042.1-.068.147-.068.147l-17.749,16.523-.426.395-.111-.363c-.937-3.157-7.614-25.547-8.419-26.768-.642-.963-.331-4.915-.132-6.9.074-.705.132-1.158.132-1.158L622,339.452l2.631-5.052L649,342.114l3.415,6.709S653.2,363.736,652.372,366.114Z" transform="translate(-358.888 -178.102)" fill="#caa8b1"/>
    <path id="Path_147" data-name="Path 147" d="M647.924,391.167c-.042.1-.068.147-.068.147l-17.749,16.523-.526.032-6.062.363-4.4-35.682s.721.658,1.921,1.647c3.494,2.878,11.05,8.588,16.838,9.34C643.573,384.279,646.672,388.794,647.924,391.167Z" transform="translate(-357.523 -196.178)" fill="none"/>
    <path id="Path_148" data-name="Path 148" d="M647.924,391.167c-.042.1-.068.147-.068.147l-17.749,16.523-.526.032-6.062.363-4.4-35.682s.721.658,1.921,1.647c3.494,2.878,11.05,8.588,16.838,9.34C643.573,384.279,646.672,388.794,647.924,391.167Z" transform="translate(-357.523 -196.178)" opacity="0.1"/>
    <path id="Path_149" data-name="Path 149" d="M667.533,385.813s-3.683-.358-5.262-1.81a44.1,44.1,0,0,0-5.641-3.773l5.757,6.351S666.759,388,667.533,385.813Z" transform="translate(-375.296 -199.816)" opacity="0.1"/>
    <path id="Path_150" data-name="Path 150" d="M650.05,398.51s.353,6.467,4.273,6.53S650.05,398.51,650.05,398.51Z" transform="translate(-372.178 -208.477)" opacity="0.1"/>
    <path id="Path_151" data-name="Path 151" d="M657.72,398.51s2.968,5.4,4.394,4.688S657.72,398.51,657.72,398.51Z" transform="translate(-375.812 -208.477)" opacity="0.1"/>
    <path id="Path_152" data-name="Path 152" d="M474.482,279.058l-4.141,1.531s-7.972.437-12.166,2.178-12.745,0-12.745,0,14.881-19.4,15.118-19.469S476.3,257.51,476.3,257.51Z" transform="translate(-275.229 -141.672)" fill="#cbcdda"/>
    <path id="Path_153" data-name="Path 153" d="M474.482,279.058l-4.141,1.531s-7.972.437-12.166,2.178-12.745,0-12.745,0,14.881-19.4,15.118-19.469S476.3,257.51,476.3,257.51Z" transform="translate(-275.229 -141.672)" opacity="0.03"/>
    <path id="Path_154" data-name="Path 154" d="M589.7,633.806c-.868,2.694-4.352,20.348-6.251,23.2s-4.115,19.233-4.115,19.233l-.426.3-.921.647s-13.623-.631-12.045-3.084a7.137,7.137,0,0,0,.595-2.294c1.052-6.662,1.147-24.379,1.147-24.379l.158-28.1s3.578-9.066,1.1-15.749a34.94,34.94,0,0,1-2.215-12.345s.395-6.493-1.347-9.1c-1.41-2.1-1.679-13.3-1.726-17.417v-1.526l2.21-3.3,24.205,1.663s-.053,1.952-.2,4.483a75.9,75.9,0,0,1-.9,8.814c-.868,4.51-.079,16.223-.079,16.223l1.347,15.26C593.422,613.705,590.575,631.117,589.7,633.806Z" transform="translate(-331.247 -284.934)" fill="#ffb9b9"/>
    <path id="Path_155" data-name="Path 155" d="M543.211,572.375v.179a28.479,28.479,0,0,1-21.843,4.152c-.526-2.1-.879-3.683-.879-3.683l22.1-2.452S542.822,571.233,543.211,572.375Z" transform="translate(-310.793 -289.999)" opacity="0.05"/>
    <path id="Path_156" data-name="Path 156" d="M567.474,452.247l-.321,6.146-.71,13.876-34.587,5.625V512.8c-14.649,9.335-27.362,2.21-27.362,2.21s.237-11.792,0-12.981-.952-6.014-.952-6.014-1.5-4.988-1.184-6.488-1.51-6.172-2.221-7.893-1.5-7.751-1.5-7.751l-.81-6.993a3.683,3.683,0,0,1-1.268-1.51c-.137-.447.147-4.61.41-8.072.2-2.568.384-4.736.384-4.736l32.293-6.093Z" transform="translate(-299.437 -231.205)" fill="#4c4c78"/>
    <path id="Path_157" data-name="Path 157" d="M559.28,513.759v27.362c-.647-.379-1.547-1.321-1.636-3.62-.142-3.641-.432-12.266-.947-16.144s1.968-8.077,1.968-8.077Z" transform="translate(-327.914 -262.855)" opacity="0.05"/>
    <path id="Path_158" data-name="Path 158" d="M524.1,493.09s1.579,3.562,6.73,4.51S524.1,493.09,524.1,493.09Z" transform="translate(-312.503 -253.289)" opacity="0.1"/>
    <path id="Path_159" data-name="Path 159" d="M514.63,506.63s10.919,1.821,13.534,1.742" transform="translate(-308.016 -259.704)" opacity="0.1"/>
    <path id="Path_160" data-name="Path 160" d="M520.94,520.465s6.151.079,9.687-1.5" transform="translate(-311.006 -265.546)" opacity="0.1"/>
    <path id="Path_161" data-name="Path 161" d="M518.54,548.888s15.828-6.041,17.728-9.2" transform="translate(-309.869 -275.368)" opacity="0.1"/>
    <path id="Path_162" data-name="Path 162" d="M525.61,562.287c.526-.079,14.481-8.472,15.67-10.687" transform="translate(-313.219 -281.011)" opacity="0.1"/>
    <path id="Path_163" data-name="Path 163" d="M590.111,561.5s-.053,1.952-.2,4.483l-26.221-1.321h0v-1.526l2.21-3.3Z" transform="translate(-331.261 -284.915)" opacity="0.1"/>
    <path id="Path_164" data-name="Path 164" d="M573.17,501.763s13.344-3.294,16.154-1.173S573.17,501.763,573.17,501.763Z" transform="translate(-335.752 -256.505)" opacity="0.1"/>
    <path id="Path_165" data-name="Path 165" d="M547.87,459.09s2.689,25.174,4.909,26.836,11.634-26.836,11.634-26.836Z" transform="translate(-323.765 -237.18)" opacity="0.1"/>
    <path id="Path_166" data-name="Path 166" d="M548.77,457.29s2.694,25.174,4.909,26.836,11.634-26.836,11.634-26.836Z" transform="translate(-324.192 -236.327)" fill="#4c4c78"/>
    <path id="Path_167" data-name="Path 167" d="M567.876,452.257l-.321,6.146a22.627,22.627,0,0,1-6.8-3.931,2.9,2.9,0,0,0-.331-.253c-2.7-1.931-6.23-1.221-8.535-.405a16.689,16.689,0,0,0-2.373,1.052s-34.987,1.189-34.987.237c0-.7-4.952.368-8.282,1.289a24.915,24.915,0,0,0-2.631.847h0c-1.263.526-4.352.295-6.13.089h-.11c.2-2.568.384-4.736.384-4.736l32.293-6.093Z" transform="translate(-299.839 -231.215)" opacity="0.1"/>
    <path id="Path_168" data-name="Path 168" d="M567.654,368.894a8.986,8.986,0,0,1-1.11-.321,22.378,22.378,0,0,1-6.883-3.957c-.11-.089-.216-.174-.332-.253-2.7-1.926-6.23-1.221-8.535-.4a15.991,15.991,0,0,0-2.373,1.052s-34.987,1.189-34.987.237c0-.7-4.952.368-8.282,1.289a26.575,26.575,0,0,0-2.631.842h0c-1.263.526-4.352.295-6.13.095-.779-.095-1.31-.174-1.31-.174v-.268l1.731-43.9,4.983-39.1,1.826-16.386,5.92-2.884,5.951-2.9a15.5,15.5,0,0,0,2.273,2.526c3.026,2.742,8.914,6.162,16.775,1.537a24.118,24.118,0,0,0,2.484-1.684c2.684-2.068,5.2.268,7.519,5.309,9.051,19.638,14.96,80.256,14.96,80.256l8.945,5.788s.305,1.142.6,2.768C569.648,361.743,570.174,367.237,567.654,368.894Z" transform="translate(-298.754 -143.738)" opacity="0.1"/>
    <path id="Path_169" data-name="Path 169" d="M567.673,370.7a8.269,8.269,0,0,1-1.11-.316,22.626,22.626,0,0,1-6.883-3.957,3.682,3.682,0,0,0-.331-.253c-2.7-1.926-6.23-1.221-8.535-.405a16.309,16.309,0,0,0-2.373,1.052s-34.966,1.216-34.966.242c0-.705-4.951.363-8.282,1.284a26.244,26.244,0,0,0-2.631.847h0c-1.263.526-4.352.295-6.13.089-.779-.089-1.31-.168-1.31-.168v-.274l1.731-43.9,4.983-39.1,1.826-16.386,5.92-2.884,5.951-2.894A15.353,15.353,0,0,0,517.8,266.2c3.026,2.747,8.914,6.167,16.775,1.542a24.214,24.214,0,0,0,2.484-1.689c2.684-2.068,5.2.274,7.519,5.309,9.045,19.633,14.955,80.256,14.955,80.256l8.945,5.788s.305,1.142.6,2.763C569.667,363.553,570.193,369.041,567.673,370.7Z" transform="translate(-298.772 -144.595)" fill="#fff"/>
    <path id="Path_170" data-name="Path 170" d="M604.413,337.112c-2.326,2.941-6.188,4.831-9.719,6.009a42.513,42.513,0,0,1-7.993,1.884l-.526-2.268c-1.289-5.173-4.541-17.891-6.409-22.627a54.064,54.064,0,0,1-3.015-12.976,67.967,67.967,0,0,0-3.515-18.68c-1.531-4.452-2.394-17.086-2.884-29.567-.195-4.92-.331-9.819-.431-14.181-.195-8.982-.211-15.7-.211-15.7l2.847-4.515a9.261,9.261,0,0,1,1.289-5.788,14.9,14.9,0,0,1,2.9-3.636c1.116.595,2.142,1.147,3.11,1.652l16.049,11.329s-8.877,11.334-15.986,20.269c9.045,19.633,14.955,80.256,14.955,80.256l8.945,5.788S604.118,335.533,604.413,337.112Z" transform="translate(-334.113 -121.564)" opacity="0.1"/>
    <path id="Path_171" data-name="Path 171" d="M602.91,306.561c-.479,9.177,5.378,24.532,5.378,24.532-.947,10.924-19.785,12.987-19.785,12.987s-4.594-18.838-6.967-24.858a54.33,54.33,0,0,1-3.01-12.981,68.055,68.055,0,0,0-3.52-18.675c-3.368-9.819-3.526-59.461-3.526-59.461l2.852-4.51a9.261,9.261,0,0,1,1.284-5.788,14.981,14.981,0,0,1,2.91-3.636c2.426,1.3,4.483,2.378,6.267,3.284s3.415,1.684,4.8,2.294c4.925,2.147,7.635,2.478,13.365,3.131a11.1,11.1,0,0,1,1.389.237c8.256,1.889,14.7,11.729,14.7,12.4s1.6,2.736,2.631,4.036-.716,3.5-.716,3.5,3.157,2.221,2.694,4.278,2.373,5.541,2.373,5.541L608.3,266.332S603.384,297.373,602.91,306.561Z" transform="translate(-334.952 -121.137)" fill="#cbcdda"/>
    <circle id="Ellipse_7" data-name="Ellipse 7" cx="0.979" cy="0.979" r="0.979" transform="translate(238.307 114.844)" fill="#767d9f"/>
    <circle id="Ellipse_8" data-name="Ellipse 8" cx="0.979" cy="0.979" r="0.979" transform="translate(238.307 127.904)" fill="#767d9f"/>
    <circle id="Ellipse_9" data-name="Ellipse 9" cx="0.979" cy="0.979" r="0.979" transform="translate(241.753 158.992)" fill="#767d9f"/>
    <circle id="Ellipse_10" data-name="Ellipse 10" cx="0.979" cy="0.979" r="0.979" transform="translate(244.248 174.904)" fill="#767d9f"/>
    <circle id="Ellipse_11" data-name="Ellipse 11" cx="0.979" cy="0.979" r="0.979" transform="translate(246.679 191.701)" fill="#767d9f"/>
    <circle id="Ellipse_12" data-name="Ellipse 12" cx="0.979" cy="0.979" r="0.979" transform="translate(240.264 143.19)" fill="#767d9f"/>
    <path id="Path_172" data-name="Path 172" d="M588.507,219.265a21.621,21.621,0,0,1-4.978,4.21c-.895,0-3.057-2.489-4.21-3.883a15.018,15.018,0,0,1,2.91-3.631C584.666,217.286,586.724,218.365,588.507,219.265Z" transform="translate(-338.666 -121.986)" opacity="0.1"/>
    <path id="Path_173" data-name="Path 173" d="M588.507,217.483a22.09,22.09,0,0,1-4.978,4.236c-.895,0-3.057-2.489-4.21-3.883a14.98,14.98,0,0,1,2.91-3.636C584.666,215.5,586.724,216.578,588.507,217.483Z" transform="translate(-338.666 -121.152)" fill="#cbcdda"/>
    <path id="Path_174" data-name="Path 174" d="M522.491,235.619s-2.384,5.715-4.688,9.882a18.229,18.229,0,0,1-2.51,3.731c-1.326,1.326-2.631,5.315-3.636,8.909-.958,3.483-1.579,6.6-1.579,6.6-1.347,2.063-1.347,27.626-1.347,27.626,2.3,9.819-1.9,37.676-1.9,37.676L505.6,343.569l-.379,4.073-.068.774c-.889.037-1.747.063-2.568.074h0a58.972,58.972,0,0,1-6.1-.216c-.458-.037-.9-.084-1.326-.137l1.731-43.9,4.983-39.1,1.826-16.386,5.92-2.884c.974-7.777,2.852-17.186,6.346-20.943A10.682,10.682,0,0,0,518.2,221.1a17.5,17.5,0,0,1,1.416-1.121s.61,1.173,1.331,2.578c.773,1.51,1.679,3.289,2.1,4.21C523.917,228.494,522.491,235.619,522.491,235.619Z" transform="translate(-298.787 -123.89)" opacity="0.1"/>
    <path id="Path_175" data-name="Path 175" d="M508.182,234.742s-4.589,11-7.2,13.613-5.225,15.512-5.225,15.512c-1.347,2.063-1.347,27.626-1.347,27.626,2.294,9.819-1.9,37.676-1.9,37.676l-1.7,18.364c-31.388,1.452-22.779-15.907-22.779-15.907l7.283-39.465s2.415-11.818,2.178-15.144,3.026-14.6,3.026-14.6-5.757-29.92-5.162-31.283,20.659-4.736,20.659-4.736a8.824,8.824,0,0,0,2-.163,3.575,3.575,0,0,0,2.92-2.152c.837-2.557,4.32-4.952,4.32-4.952s.605,1.173,1.326,2.584c.773,1.51,1.684,3.289,2.136,4.21C509.6,227.618,508.182,234.742,508.182,234.742Z" transform="translate(-285.424 -123.488)" fill="#cbcdda"/>
    <path id="Path_176" data-name="Path 176" d="M534.606,223.468c-3.11,2.8-6.451,12.9-6.451,12.9l-2.1-8.377a3.575,3.575,0,0,0,2.92-2.152c.837-2.552,4.32-4.946,4.32-4.946Z" transform="translate(-313.427 -124.321)" opacity="0.1"/>
    <path id="Path_177" data-name="Path 177" d="M534.606,221.674c-3.11,2.8-6.451,12.9-6.451,12.9l-2.1-8.377a3.575,3.575,0,0,0,2.92-2.152c.837-2.557,4.32-4.952,4.32-4.952Z" transform="translate(-313.427 -123.469)" fill="#cbcdda"/>
    <path id="Path_178" data-name="Path 178" d="M472.24,435.431s.416,4.81,10.271,1.842S472.24,435.431,472.24,435.431Z" transform="translate(-287.932 -225.871)" opacity="0.1"/>
    <path id="Path_179" data-name="Path 179" d="M674.439,319.1c-1.426,2.689-3.247,7.125-4.667,7.756a14.92,14.92,0,0,1-4.352.137c-2.952-.158-6.257-.526-6.257-.526s7.435-16.181-2.7-20.3h-9.172l-5.862-6.115,15.434-14.8,2.3,1.347,11.713,17.465s1.189,1.342,2.3,2.631.31,3.72.31,3.72S675.865,316.412,674.439,319.1Z" transform="translate(-368.094 -154.815)" fill="#cbcdda"/>
    <path id="Path_180" data-name="Path 180" d="M592.639,273.45s4.446-34.887,17.712-44.406a12.064,12.064,0,0,0-1.384-.237c-5.73-.653-8.419-.984-13.371-3.157a34.729,34.729,0,0,0-9.387,25.784c.973,17.812,0,21.969,0,21.969h1.579c2.831,5.736,14.849,29.562,21.522,34.566l.71-6.062s-17.323-20-18.822-28.5Z" transform="translate(-341.904 -126.577)" opacity="0.1"/>
    <path id="Path_181" data-name="Path 181" d="M596.249,272.574s4.446-34.892,17.712-44.406a11.005,11.005,0,0,0-1.384-.237c-5.73-.652-8.419-.984-13.371-3.131a34.729,34.729,0,0,0-9.387,25.784c.973,17.812,0,21.969,0,21.969H591.4c2.831,5.736,14.849,29.557,21.522,34.561l.71-6.057s-17.323-20-18.817-28.5Z" transform="translate(-343.614 -126.174)" opacity="0.1"/>
    <path id="Path_182" data-name="Path 182" d="M589.86,312.609s14.534,30.109,22.132,35.782l.71-6.057s-20.38-23.521-18.838-30.4Z" transform="translate(-343.66 -167.456)" fill="#6e6d84"/>
    <path id="Path_183" data-name="Path 183" d="M612.183,228.187c-13.271,9.514-17.717,44.406-17.717,44.406h-6.457s.974-4.157,0-21.969A34.73,34.73,0,0,1,597.4,224.84c4.925,2.147,7.635,2.478,13.366,3.131A11.1,11.1,0,0,1,612.183,228.187Z" transform="translate(-342.757 -126.193)" fill="#6e6d84"/>
    <path id="Path_184" data-name="Path 184" d="M498.616,342.86l-.416,24.221,4.094,2.078Z" transform="translate(-236.593 -162.446)" opacity="0.1"/>
    <path id="Path_185" data-name="Path 185" d="M637.07,277.962c2.731-.652,9.735-2.968,10-5.262S637.07,277.962,637.07,277.962Z" transform="translate(-366.028 -148.663)" opacity="0.1"/>
    <path id="Path_186" data-name="Path 186" d="M637.775,287s8.667-3.568,10.035-4.988S636.47,284.151,637.775,287Z" transform="translate(-366.318 -153.127)" opacity="0.1"/>
    <path id="Path_187" data-name="Path 187" d="M520.288,243.68s-3.783,7.462-1.5,8.24S520.288,243.68,520.288,243.68Z" transform="translate(-309.638 -135.119)" opacity="0.1"/>
    <path id="Path_188" data-name="Path 188" d="M554.955,398.51s-30.393,17.949-23.984,18.975S554.955,398.51,554.955,398.51Z" transform="translate(-315.338 -208.477)" opacity="0.1"/>
    <path id="Path_189" data-name="Path 189" d="M612,470.67s7.993,1.5,7.677,3.962" transform="translate(-354.15 -242.667)" opacity="0.1"/>
    <path id="Path_190" data-name="Path 190" d="M639.51,309.3l-.358,9.24s-2.252,3.915-3.894,4.41a2.1,2.1,0,0,1-.605.042h0c-3.226-.174-15.4-3.736-16.491-5.757-1.189-2.194-19.175-10.087-19.175-10.087s-15.134-22.979-3.8-28.557,10.8,21.669,10.8,21.669,10.271,1.542,11.576,2.373c1.094.716,11.192.216,14.207.047l.784-.026,3.2.589Z" transform="translate(-344.189 -151.304)" fill="#ffb9b9"/>
    <path id="Path_191" data-name="Path 191" d="M676.221,331.646l-.358,9.24s-2.252,3.915-3.894,4.41a2.1,2.1,0,0,1-.605.042h0l-.321-.037s7.367-16.06-2.584-20.275l.81-.026,3.2.589Z" transform="translate(-380.901 -173.648)" opacity="0.1"/>
    <path id="Path_192" data-name="Path 192" d="M679.87,345.107c-2.947-.158-6.251-.526-6.251-.526s7.43-16.175-2.689-20.317h0l7.93-.784C688.784,330.068,681.917,341.992,679.87,345.107Z" transform="translate(-382.071 -172.928)" opacity="0.1"/>
    <path id="Path_193" data-name="Path 193" d="M678.945,345.131c-2.952-.158-6.256-.526-6.256-.526s7.446-16.181-2.689-20.3h0l7.951-.773C687.891,330.092,681,342.015,678.945,345.131Z" transform="translate(-381.63 -172.952)" fill="#cbcdda"/>
    <path id="Path_194" data-name="Path 194" d="M460.49,210.792l22.948-20.417s6.172-5.788,5.7-7.6-5.62-17.891,3-18.838,5.788,26.91,5.788,26.91l-24.616,30.236Z" transform="translate(-282.365 -97.327)" fill="#ffb9b9"/>
    <path id="Path_195" data-name="Path 195" d="M432.617,273.055s-1.663-7.835.868-10.682S447.5,249.55,447.5,249.55s5.762,8.945,15.986,7.64L452.034,272.5s-5.067,6.651-12.429,6.014S432.617,273.055,432.617,273.055Z" transform="translate(-268.905 -137.9)" opacity="0.1"/>
    <path id="Path_196" data-name="Path 196" d="M431.708,273.961s-1.663-7.835.873-10.687,14.007-12.824,14.007-12.824,9.819,9.893,15.439,11.082L451.1,273.4s-5.067,6.651-12.429,6.02S431.708,273.961,431.708,273.961Z" transform="translate(-268.475 -138.327)" fill="#cbcdda"/>
    <path id="Path_197" data-name="Path 197" d="M460.15,253.4l-10.24-.91s4.567-5.7,7-5.878,2.51.31,2.51.31l-3.231,2.873Z" transform="translate(-277.352 -136.491)" opacity="0.1"/>
    <path id="Path_198" data-name="Path 198" d="M460.15,252.5l-10.24-.91s4.567-5.7,7-5.878,2.51.31,2.51.31l-3.231,2.873Z" transform="translate(-277.352 -136.065)" fill="#cbcdda"/>
    <path id="Path_199" data-name="Path 199" d="M472.683,263.28s-2.631,9.324,6.488,9.95l2.91-9.045S476.177,265.343,472.683,263.28Z" transform="translate(-287.975 -144.406)" opacity="0.1"/>
    <path id="Path_200" data-name="Path 200" d="M473.587,262.38s-2.657,9.3,6.483,9.95l2.91-9.061S477.081,264.443,473.587,262.38Z" transform="translate(-288.4 -143.979)" fill="#cbcdda"/>
    <path id="Path_201" data-name="Path 201" d="M592.476,604.973l-1.347-15.26s-.789-11.713.079-16.223a77.052,77.052,0,0,0,.91-8.814c.142-2.531.2-4.483.2-4.483l-24.205-1.663-.063.095,22.858,1.579s-.058,1.952-.2,4.483a78.29,78.29,0,0,1-.905,8.814c-.874,4.51-.084,16.223-.084,16.223l1.352,15.26c3.157,7.367.31,24.774-.558,27.462s-4.357,20.348-6.257,23.2-4.131,19.222-4.131,19.222l-1.237.873,1.31.079,1.352-.952s2.21-16.381,4.11-19.233,5.388-20.522,6.257-23.2S595.644,612.334,592.476,604.973Z" transform="translate(-333.327 -284.295)" opacity="0.1"/>
    <path id="Path_202" data-name="Path 202" d="M469.253,452.41l4.9,3v39.5l-35.64-1.794L436.06,464.1,441.9,457Z" transform="translate(-207.151 -214.351)" fill="#4c4c78"/>
    <path id="Path_203" data-name="Path 203" d="M570.58,532.35s15.044,12.266,19.633,13.06" transform="translate(-334.525 -271.891)" opacity="0.1"/>
    <path id="Path_204" data-name="Path 204" d="M581.277,775.975a7.26,7.26,0,0,0-.426,1.252l-.921.647s-13.623-.637-12.045-3.089a7.132,7.132,0,0,0,.595-2.294c3.184-.737,8.582,2.926,8.582,2.926Z" transform="translate(-333.188 -385.623)" opacity="0.1"/>
    <path id="Path_205" data-name="Path 205" d="M571.278,803.348c-.947,1.9-1.263,6.409-1.263,6.409s-2.931,4.431-7.046,3.089-16.386-.795-17.1-1.1c-2.31-1.052-1.3-3.473,0-5.7.753-1.279,1.579-2.484,1.973-3.32,1.052-2.3,3.4-8.314,3.4-8.314-.316-4.909,3.326-9.1,3.326-9.1l1.579-10.293c2.668-2.684,9.893,2.221,9.893,2.221l4.21.558c-2.136,4.667.079,17.728.079,17.728s.347,1.095.679,2.5h0C571.436,799.881,571.82,802.264,571.278,803.348Z" transform="translate(-322.163 -386.481)" fill="#c7c0d9"/>
    <path id="Path_206" data-name="Path 206" d="M571.278,824.8c-.947,1.9-1.263,6.409-1.263,6.409s-2.931,4.431-7.046,3.089-16.386-.795-17.1-1.105c-2.31-1.052-1.3-3.473,0-5.7,5.573.305,18.038.889,20.811-.158,3.557-1.342,4.357-5.978,4.32-7.856C571.436,821.327,571.82,823.711,571.278,824.8Z" transform="translate(-322.163 -407.927)" opacity="0.1"/>
    <circle id="Ellipse_13" data-name="Ellipse 13" cx="0.816" cy="0.816" r="0.816" transform="translate(241.348 400.719)" fill="#605b89"/>
    <circle id="Ellipse_14" data-name="Ellipse 14" cx="0.816" cy="0.816" r="0.816" transform="translate(231.603 400.719)" fill="#605b89"/>
    <circle id="Ellipse_15" data-name="Ellipse 15" cx="0.816" cy="0.816" r="0.816" transform="translate(241.348 405.139)" fill="#605b89"/>
    <circle id="Ellipse_16" data-name="Ellipse 16" cx="0.816" cy="0.816" r="0.816" transform="translate(231.398 405.139)" fill="#605b89"/>
    <circle id="Ellipse_17" data-name="Ellipse 17" cx="0.816" cy="0.816" r="0.816" transform="translate(238.901 415.158)" fill="#605b89"/>
    <circle id="Ellipse_18" data-name="Ellipse 18" cx="0.816" cy="0.816" r="0.816" transform="translate(230.582 415.158)" fill="#605b89"/>
    <circle id="Ellipse_19" data-name="Ellipse 19" cx="0.816" cy="0.816" r="0.816" transform="translate(239.296 412.911)" fill="#605b89"/>
    <circle id="Ellipse_20" data-name="Ellipse 20" cx="0.816" cy="0.816" r="0.816" transform="translate(230.787 412.911)" fill="#605b89"/>
    <circle id="Ellipse_21" data-name="Ellipse 21" cx="0.816" cy="0.816" r="0.816" transform="translate(239.717 410.317)" fill="#605b89"/>
    <circle id="Ellipse_22" data-name="Ellipse 22" cx="0.816" cy="0.816" r="0.816" transform="translate(231.603 410.317)" fill="#605b89"/>
    <circle id="Ellipse_23" data-name="Ellipse 23" cx="0.816" cy="0.816" r="0.816" transform="translate(240.533 407.728)" fill="#605b89"/>
    <circle id="Ellipse_24" data-name="Ellipse 24" cx="0.816" cy="0.816" r="0.816" transform="translate(231.603 407.728)" fill="#605b89"/>
    <path id="Path_207" data-name="Path 207" d="M567,789s4.041,5.015,9.182,1.052" transform="translate(-332.829 -393.491)" fill="none" stroke="#000" stroke-miterlimit="10" stroke-width="1" opacity="0.1"/>
    <path id="Path_208" data-name="Path 208" d="M562.737,800.45s10.561,2.631,9.745,4.42c0,0-9.287-1.337-9.95,0s9.135,2.589,9.135,2.589-8.056,1.258-8.945,0,8.114,2.589,8.114,2.589-8.114-.816-8.114,0,7.693,2.594,7.693,2.594-7.188-.758-7.693,0,7.156,1.052,7.3,2.247-8.319-.816-8.319,0,10.766-14.439,10.766-14.439" transform="translate(-330.318 -398.916)" fill="none" stroke="#605b89" stroke-miterlimit="10" stroke-width="1" opacity="0.2"/>
  </g>
</svg>
